<svg width="384" height="384" fill="none" xmlns="http://www.w3.org/2000/svg"><path d="M191.993 0a191.973 191.973 0 01-56.229 135.764A191.993 191.993 0 010 191.993 192.006 192.006 0 01191.993 0zm0 384a191.999 191.999 0 00135.774-56.233A191.999 191.999 0 00384 191.993a192.017 192.017 0 00-135.765 56.242A192.017 192.017 0 00191.993 384zM0 191.993a191.987 191.987 0 0056.228 135.768A191.987 191.987 0 00191.993 384 192.004 192.004 0 000 191.993zM191.993 0A192.006 192.006 0 00384 191.993 191.987 191.987 0 00265.469 14.611 191.987 191.987 0 00191.993 0z" fill="#6BEEDD"/></svg>