<svg width="313" height="309" fill="none" xmlns="http://www.w3.org/2000/svg"><rect y=".227" width="313" height="308" rx="16" fill="#2EE7BC"/><rect x="24" y="185.835" width="31" height="95.391" rx="8" fill="#131217"/><rect x="71" y="132.227" width="31" height="149" rx="8" fill="#131217"/><rect x="118" y="185.835" width="31" height="95.391" rx="8" fill="#131217"/><rect x="165" y="147.994" width="31" height="133.233" rx="8" fill="#FEE24F"/><rect x="212" y="204.756" width="31" height="76.471" rx="8" fill="#131217"/><rect x="259" y="166.915" width="31" height="114.312" rx="8" fill="#131217"/><path d="M30.336 53.491c-1.28 0-2.296-.272-3.048-.816-.752-.544-1.296-1.312-1.632-2.304-.32-1.008-.48-2.192-.48-3.552v-6.528c0-1.392.16-2.592.48-3.6.32-1.008.88-1.776 1.68-2.304.816-.544 1.936-.816 3.36-.816 1.328 0 2.384.224 3.168.672a3.777 3.777 0 011.68 1.944c.352.832.528 1.848.528 3.048v1.008h-3.384V39.14c0-.624-.048-1.16-.144-1.608-.08-.448-.256-.784-.528-1.008-.256-.24-.68-.36-1.272-.36-.624 0-1.08.152-1.368.456-.272.304-.448.704-.528 1.2-.064.496-.096 1.04-.096 1.632v8.136c0 .672.056 1.256.168 1.752.112.496.32.88.624 1.152.304.256.736.384 1.296.384.576 0 1.016-.144 1.32-.432.304-.288.512-.688.624-1.2.128-.512.192-1.12.192-1.824v-1.824h-2.088v-2.232h5.28v9.864h-2.28l-.264-1.92a3.752 3.752 0 01-1.176 1.584c-.512.4-1.216.6-2.112.6zm8.055-.264v-19.44h3.552v16.992h4.704v2.448H38.39zm14.667.264c-1.376 0-2.472-.256-3.288-.768-.816-.512-1.4-1.248-1.752-2.208-.352-.96-.528-2.096-.528-3.408v-7.272c0-1.312.176-2.432.528-3.36.352-.944.936-1.664 1.752-2.16.816-.496 1.912-.744 3.288-.744 1.408 0 2.512.248 3.312.744.816.496 1.4 1.216 1.752 2.16.368.928.552 2.048.552 3.36v7.296c0 1.296-.184 2.424-.552 3.384-.352.944-.936 1.68-1.752 2.208-.8.512-1.904.768-3.312.768zm0-2.616c.592 0 1.024-.128 1.296-.384.288-.256.48-.608.576-1.056.096-.448.144-.936.144-1.464V39.02c0-.544-.048-1.032-.144-1.464-.096-.432-.288-.768-.576-1.008-.272-.256-.704-.384-1.296-.384-.56 0-.984.128-1.272.384-.288.24-.48.576-.576 1.008-.096.432-.144.92-.144 1.464v8.952c0 .528.04 1.016.12 1.464.096.448.288.8.576 1.056s.72.384 1.296.384zm7.763 2.352v-19.44h4.776c.864 0 1.64.08 2.328.24.704.16 1.304.432 1.8.816.512.368.904.872 1.176 1.512.272.64.408 1.448.408 2.424 0 .784-.112 1.456-.336 2.016-.208.56-.52 1.008-.936 1.344-.416.32-.936.536-1.56.648.768.128 1.4.4 1.896.816.512.4.888.928 1.128 1.584.256.656.384 1.448.384 2.376 0 .928-.12 1.752-.36 2.472-.224.704-.568 1.296-1.032 1.776-.448.464-1.016.816-1.704 1.056-.672.24-1.464.36-2.376.36h-5.592zm3.552-2.496h1.344c1.072 0 1.8-.256 2.184-.768.384-.528.576-1.336.576-2.424 0-.784-.096-1.416-.288-1.896-.176-.496-.48-.864-.912-1.104-.416-.24-.976-.36-1.68-.36h-1.224v6.552zm0-9h1.2c.704 0 1.248-.104 1.632-.312.384-.208.648-.528.792-.96.16-.432.24-.976.24-1.632 0-.688-.12-1.216-.36-1.584-.224-.384-.568-.64-1.032-.768-.464-.144-1.056-.216-1.776-.216h-.696v5.472zm9.328 11.496v-19.44h8.16v2.496h-4.609v5.592h3.624v2.472h-3.624v6.432h4.657v2.448H73.7zm8.561 0l3.912-10.32-3.792-9.12h3.312l2.52 6.024 2.208-6.024h3.072l-3.744 9.792 4.032 9.648H90.47L87.71 46.7l-2.4 6.528h-3.048zm22.181.264c-.896 0-1.68-.184-2.352-.552a4.061 4.061 0 01-1.536-1.584c-.352-.688-.528-1.488-.528-2.4 0-1.232.264-2.304.792-3.216a12.03 12.03 0 012.016-2.52 91.507 91.507 0 00-.936-1.728 11.85 11.85 0 01-.792-1.8 5.675 5.675 0 01-.312-1.848c0-.832.168-1.568.504-2.208a3.743 3.743 0 011.44-1.512c.624-.384 1.376-.576 2.256-.576.816 0 1.528.16 2.136.48.624.32 1.12.776 1.488 1.368.368.576.552 1.256.552 2.04a5.11 5.11 0 01-.576 2.4 9.621 9.621 0 01-1.344 2.016 54.813 54.813 0 01-1.536 1.656l2.592 4.44c.16-.288.296-.656.408-1.104.112-.448.2-.928.264-1.44.08-.512.136-.984.168-1.416h2.592c0 .784-.08 1.528-.24 2.232-.144.704-.344 1.36-.6 1.968a14.558 14.558 0 01-.84 1.656c.192.224.44.424.744.6.32.16.656.248 1.008.264v2.76a1.749 1.749 0 01-.288.024c-.08.016-.16.024-.24.024a3.008 3.008 0 01-1.2-.288 4.913 4.913 0 01-1.008-.696 9.809 9.809 0 01-.816-.816 4.86 4.86 0 01-1.584 1.296c-.64.32-1.384.48-2.232.48zm.072-2.4c.48 0 .896-.12 1.248-.36s.656-.52.912-.84l-2.664-4.488a6.356 6.356 0 00-.84 1.68 5.654 5.654 0 00-.288 1.8c0 .384.056.752.168 1.104.112.336.288.608.528.816.24.192.552.288.936.288zm.192-9.312c.272-.352.536-.776.792-1.272a8.824 8.824 0 00.624-1.56c.16-.544.24-1.064.24-1.56 0-.432-.128-.768-.384-1.008a1.302 1.302 0 00-.96-.384c-.448 0-.784.184-1.008.552-.224.352-.336.784-.336 1.296 0 .688.112 1.376.336 2.064.224.672.456 1.296.696 1.872zm19.825 11.712c-1.424 0-2.544-.28-3.36-.84-.8-.56-1.36-1.32-1.68-2.28-.32-.976-.48-2.096-.48-3.36v-6.936c0-1.328.16-2.48.48-3.456.32-.976.88-1.728 1.68-2.256.816-.528 1.936-.792 3.36-.792 1.344 0 2.392.232 3.144.696a3.69 3.69 0 011.632 1.944c.32.848.48 1.832.48 2.952v1.632h-3.408v-1.68c0-.544-.032-1.04-.096-1.488-.048-.448-.2-.8-.456-1.056-.24-.272-.664-.408-1.272-.408s-1.056.144-1.344.432c-.272.272-.448.648-.528 1.128a9.39 9.39 0 00-.12 1.584v8.448c0 .704.056 1.288.168 1.752.112.448.312.792.6 1.032.304.224.712.336 1.224.336.592 0 1.008-.136 1.248-.408.256-.288.416-.664.48-1.128.064-.464.096-.984.096-1.56v-1.752h3.408v1.56c0 1.152-.152 2.176-.456 3.072a4.02 4.02 0 01-1.608 2.088c-.752.496-1.816.744-3.192.744zm12.529 0c-1.376 0-2.472-.256-3.288-.768-.816-.512-1.4-1.248-1.752-2.208-.352-.96-.528-2.096-.528-3.408v-7.272c0-1.312.176-2.432.528-3.36.352-.944.936-1.664 1.752-2.16.816-.496 1.912-.744 3.288-.744 1.408 0 2.512.248 3.312.744.816.496 1.4 1.216 1.752 2.16.368.928.552 2.048.552 3.36v7.296c0 1.296-.184 2.424-.552 3.384-.352.944-.936 1.68-1.752 2.208-.8.512-1.904.768-3.312.768zm0-2.616c.592 0 1.024-.128 1.296-.384.288-.256.48-.608.576-1.056.096-.448.144-.936.144-1.464V39.02c0-.544-.048-1.032-.144-1.464-.096-.432-.288-.768-.576-1.008-.272-.256-.704-.384-1.296-.384-.56 0-.984.128-1.272.384-.288.24-.48.576-.576 1.008-.096.432-.144.92-.144 1.464v8.952c0 .528.04 1.016.12 1.464.096.448.288.8.576 1.056s.72.384 1.296.384z" fill="#131217"/><path opacity=".5" d="M34.536 77.307c-1.066 0-2.026-.155-2.88-.464a5.626 5.626 0 01-2.144-1.376c-.576-.608-1.002-1.355-1.28-2.24-.266-.896-.368-1.925-.304-3.088.064-1.259.283-2.379.656-3.36.374-.981.886-1.803 1.536-2.464a6.465 6.465 0 012.336-1.52c.896-.352 1.894-.528 2.992-.528 1.046 0 1.947.17 2.704.512.758.341 1.37.816 1.84 1.424a5.57 5.57 0 011.024 2.096c.214.779.288 1.616.224 2.512a6.619 6.619 0 01-.304 1.76 4.91 4.91 0 01-.768 1.552 3.86 3.86 0 01-1.216 1.104c-.48.277-1.034.416-1.664.416a2.44 2.44 0 01-.832-.144 1.641 1.641 0 01-.656-.448 1.486 1.486 0 01-.352-.736c-.096.31-.272.587-.528.832s-.586.384-.992.416c-.565.043-1.045-.07-1.44-.336a2.474 2.474 0 01-.88-1.136 4.187 4.187 0 01-.272-1.616 6.606 6.606 0 01.976-3.296 4.11 4.11 0 011.168-1.216c.459-.32.982-.48 1.568-.48a.85.85 0 01.496.144 1.4 1.4 0 01.368.336c.107.117.192.219.256.304l.16-.672h1.68l-.8 5.552c-.021.16-.042.336-.064.528-.01.192.006.363.048.512a.326.326 0 00.288.24c.267.032.528-.037.784-.208.267-.17.502-.416.704-.736.214-.33.384-.715.512-1.152.139-.448.219-.928.24-1.44a7.069 7.069 0 00-.16-2.048 4.22 4.22 0 00-.736-1.648 3.437 3.437 0 00-1.408-1.088c-.586-.256-1.296-.384-2.128-.384-.874 0-1.653.16-2.336.48a4.925 4.925 0 00-1.744 1.312 6.334 6.334 0 00-1.104 2.016 9.58 9.58 0 00-.448 2.56 9.05 9.05 0 00.096 2.048c.107.608.294 1.141.56 1.6.267.459.608.848 1.024 1.168.416.31.907.544 1.472.704.576.16 1.222.24 1.936.24.288 0 .603-.021.944-.064a9.768 9.768 0 001.056-.16c.374-.075.72-.16 1.04-.256l.288 1.424a19.75 19.75 0 01-1.792.368c-.597.096-1.178.144-1.744.144zm-.16-5.28c.15-.021.336-.107.56-.256.224-.16.384-.421.48-.784l.512-3.744c-.032-.053-.101-.09-.208-.112a.822.822 0 00-.256-.048c-.426 0-.805.165-1.136.496-.32.32-.576.741-.768 1.264a4.655 4.655 0 00-.288 1.648c0 .288.038.555.112.8.075.245.192.437.352.576.17.139.384.192.64.16zm11.372 3.376c-.853 0-1.53-.181-2.032-.544-.501-.363-.864-.875-1.088-1.536-.213-.672-.32-1.461-.32-2.368v-4.352c0-.928.107-1.728.32-2.4.213-.672.587-1.184 1.12-1.536.544-.363 1.29-.544 2.24-.544.885 0 1.59.15 2.112.448.523.299.896.73 1.12 1.296.235.555.352 1.232.352 2.032v.672h-2.256v-.736c0-.416-.032-.773-.096-1.072-.053-.299-.17-.523-.352-.672-.17-.16-.453-.24-.848-.24-.416 0-.72.101-.912.304-.181.203-.299.47-.352.8-.043.33-.064.693-.064 1.088v5.424c0 .448.037.837.112 1.168.075.33.213.587.416.768.203.17.49.256.864.256.384 0 .677-.096.88-.288.203-.192.341-.459.416-.8a5.08 5.08 0 00.128-1.216V70.14h-1.392v-1.488h3.52v6.576h-1.52l-.176-1.28c-.17.427-.432.779-.784 1.056-.341.267-.81.4-1.408.4zm5.37-.176v-12.96h2.367v11.328h3.136v1.632h-5.504zm9.778.176c-.918 0-1.648-.17-2.192-.512-.544-.341-.934-.832-1.168-1.472-.235-.64-.352-1.397-.352-2.272V66.3c0-.875.117-1.621.352-2.24.234-.63.624-1.11 1.168-1.44.544-.33 1.274-.496 2.192-.496.938 0 1.674.165 2.208.496.544.33.933.81 1.168 1.44.245.619.368 1.365.368 2.24v4.864c0 .864-.123 1.616-.368 2.256a2.915 2.915 0 01-1.168 1.472c-.534.341-1.27.512-2.208.512zm0-1.744c.394 0 .682-.085.864-.256.192-.17.32-.405.384-.704a4.66 4.66 0 00.096-.976v-5.968c0-.363-.032-.688-.096-.976-.064-.288-.192-.512-.384-.672-.182-.17-.47-.256-.864-.256-.374 0-.656.085-.848.256-.192.16-.32.384-.384.672a4.517 4.517 0 00-.096.976v5.968c0 .352.026.677.08.976.064.299.192.533.384.704.192.17.48.256.864.256zm5.175 1.568v-12.96h3.184a6.87 6.87 0 011.552.16c.47.107.87.288 1.2.544.342.245.603.581.784 1.008.182.427.272.965.272 1.616 0 .523-.074.97-.224 1.344a2.03 2.03 0 01-.624.896c-.277.213-.624.357-1.04.432.512.085.934.267 1.264.544.342.267.592.619.752 1.056.17.437.256.965.256 1.584 0 .619-.08 1.168-.24 1.648-.15.47-.378.864-.688 1.184-.298.31-.677.544-1.136.704-.448.16-.976.24-1.584.24h-3.728zm2.368-1.664h.896c.715 0 1.2-.17 1.456-.512.256-.352.384-.89.384-1.616 0-.523-.064-.944-.192-1.264a1.309 1.309 0 00-.608-.736c-.277-.16-.65-.24-1.12-.24h-.816v4.368zm0-6h.8c.47 0 .832-.07 1.088-.208.256-.139.432-.352.528-.64.107-.288.16-.65.16-1.088 0-.459-.08-.81-.24-1.056a1.097 1.097 0 00-.688-.512c-.31-.096-.704-.144-1.184-.144h-.464v3.648zm6.219 7.664v-12.96h5.44v1.664h-3.073v3.728h2.416v1.648h-2.416v4.288h3.104v1.632h-5.472zm5.707 0l2.608-6.88-2.528-6.08h2.208l1.68 4.016 1.472-4.016h2.048l-2.496 6.528 2.688 6.432h-2.208l-1.84-4.352-1.6 4.352h-2.032zm11.217.176c-.598 0-1.12-.123-1.568-.368a2.708 2.708 0 01-1.024-1.056c-.235-.459-.352-.992-.352-1.6 0-.821.176-1.536.528-2.144a8.022 8.022 0 011.344-1.68 65.072 65.072 0 00-.624-1.152 7.91 7.91 0 01-.528-1.2 3.785 3.785 0 01-.208-1.232c0-.555.112-1.045.336-1.472.224-.427.544-.763.96-1.008.416-.256.917-.384 1.504-.384.544 0 1.018.107 1.424.32.416.213.746.517.992.912.245.384.368.837.368 1.36 0 .576-.128 1.11-.384 1.6-.246.49-.544.939-.896 1.344a36.68 36.68 0 01-1.024 1.104l1.728 2.96a3.05 3.05 0 00.272-.736 8.09 8.09 0 00.176-.96c.053-.341.09-.656.112-.944h1.728c0 .523-.054 1.019-.16 1.488-.096.47-.23.907-.4 1.312a9.7 9.7 0 01-.56 1.104c.128.15.293.283.496.4.213.107.437.165.672.176v1.84c-.064.01-.128.016-.192.016a.818.818 0 01-.16.016 2.007 2.007 0 01-.8-.192 3.279 3.279 0 01-.672-.464 6.565 6.565 0 01-.544-.544 3.24 3.24 0 01-1.056.864c-.427.213-.923.32-1.488.32zm.048-1.6c.32 0 .597-.08.832-.24.234-.16.437-.347.608-.56l-1.776-2.992a4.238 4.238 0 00-.56 1.12 3.77 3.77 0 00-.192 1.2c0 .256.037.501.112.736.074.224.192.405.352.544.16.128.368.192.624.192zm.128-6.208a5.55 5.55 0 00.528-.848c.17-.33.309-.677.416-1.04.106-.363.16-.71.16-1.04 0-.288-.086-.512-.256-.672a.868.868 0 00-.64-.256.736.736 0 00-.672.368c-.15.235-.224.523-.224.864 0 .459.074.917.224 1.376.149.448.304.864.464 1.248zm9.646 7.808c-.949 0-1.696-.187-2.24-.56a2.936 2.936 0 01-1.12-1.52c-.213-.65-.32-1.397-.32-2.24V66.46c0-.885.107-1.653.32-2.304.214-.65.587-1.152 1.12-1.504.544-.352 1.291-.528 2.24-.528.896 0 1.595.155 2.096.464.512.299.875.73 1.088 1.296.214.565.32 1.221.32 1.968v1.088h-2.272v-1.12c0-.363-.021-.693-.064-.992-.032-.299-.133-.533-.304-.704-.16-.181-.442-.272-.848-.272-.405 0-.704.096-.896.288-.181.181-.298.432-.352.752-.053.31-.08.661-.08 1.056v5.632c0 .47.038.859.112 1.168.075.299.208.528.4.688.203.15.475.224.816.224.395 0 .672-.09.832-.272.171-.192.278-.443.32-.752.043-.31.064-.656.064-1.04v-1.168h2.272v1.04c0 .768-.101 1.45-.304 2.048a2.678 2.678 0 01-1.072 1.392c-.501.33-1.21.496-2.128.496zm8.353 0c-.917 0-1.648-.17-2.192-.512-.544-.341-.933-.832-1.168-1.472-.235-.64-.352-1.397-.352-2.272V66.3c0-.875.117-1.621.352-2.24.235-.63.624-1.11 1.168-1.44.544-.33 1.275-.496 2.192-.496.939 0 1.675.165 2.208.496.544.33.933.81 1.168 1.44.245.619.368 1.365.368 2.24v4.864c0 .864-.123 1.616-.368 2.256a2.918 2.918 0 01-1.168 1.472c-.533.341-1.269.512-2.208.512zm0-1.744c.395 0 .683-.085.864-.256.192-.17.32-.405.384-.704a4.66 4.66 0 00.096-.976v-5.968c0-.363-.032-.688-.096-.976-.064-.288-.192-.512-.384-.672-.181-.17-.469-.256-.864-.256-.373 0-.656.085-.848.256-.192.16-.32.384-.384.672a4.517 4.517 0 00-.096.976v5.968c0 .352.027.677.08.976.064.299.192.533.384.704.192.17.48.256.864.256z" fill="#131217"/></svg>