<svg width="282" height="304" fill="none" xmlns="http://www.w3.org/2000/svg"><rect width="282" height="304" rx="20" fill="#fff"/><path d="M41.862 41.14v-7.324h2.746c.563 0 1.035.105 1.416.315.384.21.674.498.87.865.197.365.296.78.296 1.245 0 .47-.099.887-.297 1.251a2.12 2.12 0 01-.876.862c-.386.208-.861.311-1.427.311h-1.82v-1.09h1.642c.329 0 .598-.058.808-.172a1.08 1.08 0 00.465-.472c.102-.2.154-.43.154-.69 0-.26-.052-.489-.154-.687a1.045 1.045 0 00-.469-.461c-.21-.112-.48-.168-.812-.168H43.19v6.215h-1.327zm7.704.11a2.29 2.29 0 01-.94-.185 1.535 1.535 0 01-.658-.558c-.16-.246-.24-.548-.24-.908 0-.31.057-.566.172-.77a1.33 1.33 0 01.468-.486c.198-.121.421-.213.669-.275.25-.064.509-.11.776-.14.322-.033.583-.063.783-.089.2-.028.346-.071.436-.128.093-.06.14-.152.14-.276v-.021c0-.27-.08-.478-.24-.626-.16-.148-.39-.222-.69-.222-.317 0-.569.07-.755.208a1.03 1.03 0 00-.371.49l-1.21-.172a1.93 1.93 0 01.473-.837c.22-.226.488-.396.805-.508a3.08 3.08 0 011.05-.171c.265 0 .529.03.791.093.262.062.502.164.719.307.217.14.39.333.522.576.134.243.2.547.2.912v3.676h-1.244v-.755h-.043a1.58 1.58 0 01-.333.43 1.6 1.6 0 01-.532.318 2.147 2.147 0 01-.748.118zm.336-.95c.26 0 .486-.052.676-.154.19-.105.337-.243.44-.415.105-.172.157-.359.157-.562v-.647a.609.609 0 01-.207.093 2.943 2.943 0 01-.322.075c-.12.022-.237.04-.354.058l-.304.043a2.26 2.26 0 00-.518.128.862.862 0 00-.362.25.612.612 0 00-.132.408c0 .239.087.419.261.54.174.122.396.183.665.183zm4.272 2.9a2.621 2.621 0 01-.843-.136l.3-1.009c.188.055.356.081.504.079a.619.619 0 00.39-.14c.114-.088.21-.236.29-.443l.11-.297-1.991-5.607h1.373l1.266 4.148h.057l1.27-4.148h1.376l-2.2 6.158c-.102.29-.237.54-.407.747-.17.21-.377.37-.622.48a2.073 2.073 0 01-.873.168zm4.797-2.06v-5.493h1.237v.934h.064a1.46 1.46 0 01.569-.737c.264-.179.58-.268.947-.268.372 0 .686.09.94.271.258.18.44.424.544.733h.058c.121-.305.326-.548.615-.729.29-.184.635-.275 1.033-.275.506 0 .918.16 1.237.479.32.32.48.785.48 1.398v3.687h-1.298v-3.487c0-.34-.091-.59-.272-.747a.97.97 0 00-.665-.24c-.313 0-.557.098-.733.294-.174.193-.261.444-.261.754v3.426h-1.27V37.6c0-.284-.086-.51-.258-.68-.169-.169-.39-.254-.665-.254a.938.938 0 00-.507.143.997.997 0 00-.365.397 1.24 1.24 0 00-.136.594v3.34h-1.294zm11.267.107c-.55 0-1.026-.114-1.427-.343a2.325 2.325 0 01-.919-.98c-.214-.424-.322-.924-.322-1.498 0-.565.108-1.061.322-1.488a2.43 2.43 0 01.909-1.001c.388-.24.845-.361 1.37-.361.338 0 .657.054.957.164.303.107.57.274.802.5.233.227.417.516.55.866.134.348.2.763.2 1.245v.397h-4.502v-.873h3.262a1.392 1.392 0 00-.161-.661 1.17 1.17 0 00-.44-.462 1.236 1.236 0 00-.651-.168c-.265 0-.497.064-.697.193a1.33 1.33 0 00-.469.5 1.45 1.45 0 00-.168.677v.761c0 .32.059.594.175.823.117.226.28.4.49.522.21.12.456.179.737.179.188 0 .359-.026.511-.079.153-.055.285-.135.397-.24a1 1 0 00.254-.39l1.209.137a1.884 1.884 0 01-.436.836 2.13 2.13 0 01-.816.551c-.331.129-.71.193-1.137.193zm4.63-3.325v3.218h-1.294v-5.493h1.237v.934h.065a1.57 1.57 0 01.604-.734c.28-.18.624-.271 1.034-.271.379 0 .709.08.99.243.284.162.503.397.658.704.157.308.235.68.233 1.12v3.497H77.1v-3.297c0-.367-.095-.655-.286-.862-.188-.207-.45-.311-.783-.311a1.2 1.2 0 00-.604.15c-.175.098-.312.24-.412.426a1.437 1.437 0 00-.146.675zm7.384-2.275v1.002h-3.158v-1.002h3.158zm-2.378-1.316h1.294v5.157c0 .174.027.307.08.4.054.09.126.153.214.186.088.034.186.05.293.05.081 0 .155-.006.222-.018.069-.012.121-.022.157-.032l.218 1.012a2.433 2.433 0 01-.762.129c-.324.01-.616-.04-.876-.147a1.364 1.364 0 01-.618-.507c-.15-.23-.224-.515-.222-.859v-5.37z" fill="#0A0D13"/><path stroke="#ACACAC" stroke-width=".42" d="M41.14 50.427h199.72"/><path d="M41.681 71.741V66.25h2.06c.422 0 .776.078 1.062.236.288.157.505.373.652.649.148.273.223.584.223.933 0 .352-.075.665-.223.939a1.59 1.59 0 01-.657.646c-.29.156-.647.233-1.07.233h-1.365v-.818h1.23c.247 0 .45-.043.607-.128a.812.812 0 00.348-.354 1.12 1.12 0 00.116-.518c0-.195-.039-.367-.116-.515a.783.783 0 00-.35-.346c-.158-.084-.361-.126-.61-.126h-.912v4.661h-.995zm5.93.083c-.261 0-.497-.046-.706-.14a1.151 1.151 0 01-.493-.418 1.223 1.223 0 01-.18-.68c0-.233.043-.425.129-.577a.996.996 0 01.351-.365 1.79 1.79 0 01.502-.207 4.08 4.08 0 01.582-.104c.241-.025.437-.048.587-.067a.87.87 0 00.327-.097c.07-.044.105-.113.105-.206v-.016c0-.203-.06-.359-.18-.47-.12-.11-.292-.166-.517-.166-.238 0-.427.052-.566.155a.771.771 0 00-.28.368l-.906-.129c.072-.25.19-.46.354-.627a1.54 1.54 0 01.604-.381c.237-.086.5-.129.788-.129.199 0 .396.023.593.07.197.046.376.123.539.23.163.106.293.25.392.432.1.183.15.41.15.684v2.757h-.934v-.566h-.032a1.187 1.187 0 01-.649.56c-.159.06-.346.09-.56.09zm.252-.713c.195 0 .364-.038.507-.115a.854.854 0 00.33-.311.793.793 0 00.117-.422v-.485a.457.457 0 01-.155.07 2.3 2.3 0 01-.242.056 7.61 7.61 0 01-.265.043l-.228.032a1.69 1.69 0 00-.389.097.646.646 0 00-.27.187.459.459 0 00-.1.306.46.46 0 00.196.405c.13.091.297.137.499.137zm3.355 2.175a1.962 1.962 0 01-.633-.102l.225-.756c.141.04.267.06.378.059a.464.464 0 00.293-.105.742.742 0 00.217-.332l.083-.223-1.494-4.205h1.03l.95 3.11h.042l.953-3.11h1.032l-1.65 4.618a1.85 1.85 0 01-.305.56 1.243 1.243 0 01-.467.36 1.55 1.55 0 01-.654.126zm6.82-1.545l-1.55-5.492h1.07l.99 4.036h.05l1.057-4.036h.974l1.06 4.039h.048l.99-4.04h1.07l-1.55 5.493h-.983l-1.1-3.854h-.042l-1.102 3.854h-.982zm6.405 0v-4.12h.971v4.12h-.97zm.489-4.704a.567.567 0 01-.398-.153.493.493 0 01-.166-.373.49.49 0 01.166-.372.561.561 0 01.397-.156c.156 0 .288.052.397.156a.487.487 0 01.167.372.493.493 0 01-.167.373.56.56 0 01-.397.153zm3.538.585v.75h-2.368v-.75h2.368zm-1.784-.987h.971v3.867c0 .13.02.23.059.3a.32.32 0 00.16.14c.067.025.14.038.22.038a.938.938 0 00.167-.014c.052-.009.091-.017.118-.024l.164.759a1.822 1.822 0 01-.571.097 1.583 1.583 0 01-.658-.11 1.023 1.023 0 01-.464-.381 1.135 1.135 0 01-.166-.644v-4.028zm3.655 2.692v2.414h-.97V66.25h.949v2.073h.048c.096-.233.246-.416.448-.55.204-.136.463-.204.778-.204.286 0 .535.06.748.18.213.12.377.295.493.525.118.231.177.513.177.845v2.623h-.97v-2.473c0-.277-.072-.492-.215-.646-.141-.156-.34-.233-.596-.233a.938.938 0 00-.46.112.788.788 0 00-.317.32 1.054 1.054 0 00-.113.506zM74.6 71.8a.575.575 0 01-.418-.171.556.556 0 01-.172-.419.55.55 0 01.172-.413.575.575 0 01.418-.171c.157 0 .294.057.41.171a.564.564 0 01.094.71.616.616 0 01-.214.215.558.558 0 01-.29.078zm0-2.94a.575.575 0 01-.418-.17.561.561 0 01-.172-.42.55.55 0 01.172-.412.57.57 0 01.418-.175c.157 0 .294.058.41.175a.564.564 0 01.094.708.616.616 0 01-.214.214.544.544 0 01-.29.08z" fill="#0A0D13"/><circle cx="44.286" cy="83.748" r="1.888" fill="#2FBD6A"/><circle cx="44.286" cy="83.748" r="3.566" stroke="#2FBD6A" stroke-width=".839"/><path d="M55.382 82.454h-.744a1.138 1.138 0 00-.446-.727 1.233 1.233 0 00-.38-.191 1.48 1.48 0 00-.44-.065c-.281 0-.533.071-.756.213-.22.141-.396.349-.524.622-.127.273-.191.607-.191 1.001 0 .397.063.733.19 1.006.13.273.305.48.528.62.222.14.472.21.75.21.155 0 .3-.02.44-.062.139-.043.265-.106.378-.189a1.153 1.153 0 00.45-.717l.745.002a1.99 1.99 0 01-.232.663 1.83 1.83 0 01-.436.52 1.972 1.972 0 01-.605.336c-.228.08-.476.119-.744.119-.423 0-.8-.1-1.13-.3a2.103 2.103 0 01-.782-.866c-.19-.375-.284-.822-.284-1.342 0-.521.096-.969.286-1.342.19-.375.452-.663.782-.863a2.12 2.12 0 011.128-.303c.259 0 .5.037.724.112.226.073.429.181.608.324.18.142.329.315.446.52.118.204.197.436.239.699zm1.89 3.375a1.51 1.51 0 01-.63-.128 1.061 1.061 0 01-.446-.38 1.087 1.087 0 01-.162-.607c0-.207.04-.377.12-.51a.88.88 0 01.321-.318 1.68 1.68 0 01.453-.176c.167-.04.337-.07.51-.09l.534-.063a.786.786 0 00.298-.083c.062-.038.093-.1.093-.186v-.017c0-.208-.059-.37-.176-.484-.116-.114-.29-.171-.52-.171-.24 0-.429.053-.567.16a.856.856 0 00-.284.35l-.67-.153c.08-.222.196-.402.348-.538a1.39 1.39 0 01.532-.3 2.075 2.075 0 011.097-.044c.165.034.319.096.462.186.145.09.263.22.355.389.092.167.139.384.139.65v2.432h-.697v-.5h-.028a1.015 1.015 0 01-.208.271c-.092.09-.21.163-.355.222a1.378 1.378 0 01-.52.088zm.154-.572c.197 0 .366-.039.506-.117a.818.818 0 00.322-.305.791.791 0 00.112-.407v-.472a.37.37 0 01-.148.071 2.49 2.49 0 01-.246.055 28.475 28.475 0 01-.488.069 1.77 1.77 0 00-.38.088.653.653 0 00-.271.179.447.447 0 00-.1.305c0 .177.065.31.195.4.13.09.297.134.498.134zm2.602.491v-3.662h.689v.582h.038a.885.885 0 01.353-.465 1.01 1.01 0 01.577-.171 3.132 3.132 0 01.303.016v.682a1.277 1.277 0 00-.153-.026 1.459 1.459 0 00-.22-.017.93.93 0 00-.45.108.798.798 0 00-.424.717v2.236h-.713zm3.816.072a1.42 1.42 0 01-.791-.227 1.543 1.543 0 01-.544-.65c-.13-.283-.195-.623-.195-1.019 0-.395.066-.734.197-1.015a1.52 1.52 0 01.549-.646 1.42 1.42 0 01.789-.224c.227 0 .41.038.548.114.14.075.248.162.324.262.078.1.139.189.182.265h.042v-1.814h.713v4.882h-.696v-.57h-.06a1.886 1.886 0 01-.185.267c-.08.1-.19.188-.33.263-.14.075-.32.112-.543.112zm.157-.608a.83.83 0 00.52-.162c.143-.11.251-.262.324-.456.075-.194.112-.42.112-.677a1.86 1.86 0 00-.11-.667.98.98 0 00-.321-.446.847.847 0 00-.525-.16.848.848 0 00-.536.167 1.02 1.02 0 00-.324.456 1.843 1.843 0 00-.107.65c0 .245.036.465.11.66.072.196.18.351.323.466a.848.848 0 00.534.169z" fill="#0A0D13"/><circle cx="77.909" cy="83.748" r="3.566" stroke="#ACACAC" stroke-width=".839"/><path d="M84.948 85.748v-4.882h1.789c.346 0 .633.057.86.171.227.113.397.267.51.46.113.193.17.41.17.651 0 .204-.038.376-.112.515a.923.923 0 01-.3.334 1.326 1.326 0 01-.41.181v.048c.161.008.32.06.474.157.155.096.284.232.386.408.101.177.152.391.152.644 0 .25-.058.473-.176.672a1.202 1.202 0 01-.539.47c-.243.114-.554.171-.932.171h-1.871zm.737-.632h1.063c.353 0 .606-.068.758-.204a.66.66 0 00.23-.513.805.805 0 00-.451-.732 1.07 1.07 0 00-.51-.114h-1.09v1.564zm0-2.138h.987c.165 0 .314-.032.446-.095a.78.78 0 00.317-.267.707.707 0 00.12-.41.678.678 0 00-.213-.508c-.141-.137-.358-.205-.65-.205h-1.007v1.485zm4.664 2.851c-.232 0-.441-.043-.629-.128a1.061 1.061 0 01-.446-.38 1.088 1.088 0 01-.162-.607c0-.207.04-.377.12-.51a.88.88 0 01.321-.318c.135-.078.286-.136.453-.176.167-.04.337-.07.51-.09l.534-.063a.786.786 0 00.298-.083c.062-.038.093-.1.093-.186v-.017c0-.208-.059-.37-.176-.484-.116-.114-.29-.171-.52-.171-.24 0-.429.053-.567.16a.854.854 0 00-.284.35l-.67-.153c.08-.222.196-.402.348-.538a1.39 1.39 0 01.532-.3 2.074 2.074 0 011.097-.044c.165.034.319.096.462.186.145.09.263.22.355.389.092.167.138.384.138.65v2.432h-.696v-.5h-.028a1.015 1.015 0 01-.208.271c-.092.09-.21.163-.355.222a1.378 1.378 0 01-.52.088zm.155-.572c.197 0 .366-.039.506-.117a.818.818 0 00.322-.305.791.791 0 00.112-.407v-.472a.372.372 0 01-.148.071 2.32 2.32 0 01-.246.055 28.475 28.475 0 01-.488.069 1.77 1.77 0 00-.38.088.652.652 0 00-.271.179.447.447 0 00-.1.305c0 .177.065.31.195.4.13.09.296.134.498.134zm3.315-1.683v2.174h-.713v-3.662h.684v.597h.045a1.06 1.06 0 01.396-.468c.181-.117.41-.176.684-.176.25 0 .468.052.656.157.188.103.333.258.436.463.103.205.155.458.155.76v2.33h-.713v-2.244c0-.265-.069-.473-.207-.622-.138-.151-.328-.227-.57-.227a.893.893 0 00-.44.107.773.773 0 00-.304.315 1.04 1.04 0 00-.11.496zm3.955.932l-.005-.87h.124l1.459-1.55h.853l-1.664 1.765h-.112l-.655.655zm-.656 1.242v-4.882h.713v4.882h-.713zm2.313 0l-1.312-1.74.492-.498 1.695 2.238h-.875z" fill="#ACACAC"/><circle cx="111.532" cy="83.748" r="3.566" stroke="#ACACAC" stroke-width=".839"/><path d="M118.331 81.5v-.634h3.778v.634h-1.523v4.248h-.734V81.5h-1.521zm4.176 4.248v-3.662h.689v.582h.038a.884.884 0 01.353-.465c.17-.114.362-.171.577-.171a3.121 3.121 0 01.303.016v.682a1.307 1.307 0 00-.153-.026 1.455 1.455 0 00-.219-.017.93.93 0 00-.451.108.798.798 0 00-.424.717v2.236h-.713zm3.609.081c-.232 0-.442-.043-.629-.128a1.06 1.06 0 01-.446-.38 1.088 1.088 0 01-.162-.607.99.99 0 01.119-.51.885.885 0 01.322-.318c.135-.078.286-.136.453-.176.167-.04.337-.07.51-.09l.534-.063a.784.784 0 00.298-.083c.062-.038.093-.1.093-.186v-.017c0-.208-.059-.37-.176-.484-.116-.114-.29-.171-.52-.171-.24 0-.429.053-.567.16a.85.85 0 00-.284.35l-.67-.153a1.28 1.28 0 01.348-.538c.154-.139.331-.239.532-.3a2.073 2.073 0 011.096-.044c.166.034.32.096.463.186.144.09.263.22.355.389.092.167.138.384.138.65v2.432h-.696v-.5h-.028a1.042 1.042 0 01-.208.271c-.092.09-.21.163-.355.222a1.38 1.38 0 01-.52.088zm.155-.572c.197 0 .366-.039.506-.117a.818.818 0 00.321-.305.788.788 0 00.112-.407v-.472a.364.364 0 01-.147.071c-.072.02-.154.039-.246.055l-.269.04-.22.029a1.781 1.781 0 00-.379.088.653.653 0 00-.271.179.446.446 0 00-.101.305c0 .177.066.31.196.4.13.09.296.134.498.134zm3.315-1.683v2.174h-.713v-3.662h.684v.597h.045c.084-.194.216-.35.396-.468.181-.117.409-.176.684-.176.25 0 .468.052.656.157.187.103.333.258.436.463.103.205.155.458.155.76v2.33h-.713v-2.244c0-.265-.069-.473-.207-.622-.138-.151-.328-.227-.57-.227a.894.894 0 00-.441.107.776.776 0 00-.303.315 1.04 1.04 0 00-.109.496zm6.043-.593l-.646.114a.762.762 0 00-.129-.236.637.637 0 00-.233-.184.85.85 0 00-.37-.071.886.886 0 00-.505.136c-.136.089-.203.204-.203.345 0 .123.045.221.136.296.09.075.237.136.438.184l.582.133c.337.078.588.198.754.36a.846.846 0 01.247.632.96.96 0 01-.19.586c-.126.17-.301.304-.527.4a1.95 1.95 0 01-.78.146c-.41 0-.744-.087-1.003-.262a1.11 1.11 0 01-.477-.751l.689-.105a.66.66 0 00.264.408.92.92 0 00.523.136c.233 0 .42-.049.56-.146.14-.098.21-.218.21-.36a.374.374 0 00-.129-.288c-.084-.078-.214-.137-.389-.177l-.62-.136c-.341-.077-.594-.201-.758-.371a.9.9 0 01-.243-.646c0-.217.061-.406.181-.568.121-.162.288-.288.501-.379a1.83 1.83 0 01.732-.138c.396 0 .707.086.934.257.228.17.378.398.451.684zm2.598-.894v.572h-2.069v-.573h2.069zm-1.502 3.661v-4.086c0-.229.05-.419.15-.57a.921.921 0 01.398-.34c.166-.077.345-.115.539-.115.143 0 .265.012.367.036.102.022.177.043.227.062l-.167.577a4.143 4.143 0 00-.129-.034.732.732 0 00-.191-.021c-.173 0-.297.043-.372.129-.073.085-.109.21-.109.371v3.991h-.713zm3.671.074a1.8 1.8 0 01-.932-.231 1.572 1.572 0 01-.601-.656 2.23 2.23 0 01-.209-.994c0-.375.07-.705.209-.992.142-.286.339-.509.592-.67.254-.16.551-.24.891-.24.207 0 .407.034.601.102.194.069.368.176.522.322.154.146.276.336.365.57.089.232.133.514.133.846v.253h-2.911v-.534h2.213a1.04 1.04 0 00-.115-.498.863.863 0 00-.803-.472c-.2 0-.375.049-.524.147a.992.992 0 00-.344.382 1.107 1.107 0 00-.119.508v.417c0 .245.043.453.129.625a.927.927 0 00.365.393c.155.089.337.133.545.133.136 0 .259-.019.37-.057a.768.768 0 00.474-.465l.675.122a1.22 1.22 0 01-.291.522 1.405 1.405 0 01-.522.346 1.953 1.953 0 01-.713.121zm2.362-.074v-3.662h.689v.582h.038a.89.89 0 01.353-.465c.17-.114.363-.171.577-.171a3.088 3.088 0 01.303.016v.682a1.307 1.307 0 00-.153-.026 1.455 1.455 0 00-.219-.017.93.93 0 00-.451.108.805.805 0 00-.424.717v2.236h-.713z" fill="#ACACAC"/><path d="M51.245 110.853v-5.493h3.315v.59h-2.65v1.856h2.479v.59H51.91v1.867h2.693v.59h-3.358zm5.061-2.478v2.478h-.633v-4.119h.612v.643h.053c.097-.209.243-.377.44-.504.197-.129.45-.193.762-.193.279 0 .523.057.732.172.21.112.372.284.488.514.116.229.174.519.174.869v2.618h-.633v-2.575c0-.323-.084-.575-.252-.756-.168-.182-.398-.274-.692-.274a1.1 1.1 0 00-.541.132.935.935 0 00-.373.383 1.267 1.267 0 00-.137.612zm5.577-1.641v.536h-2.135v-.536h2.135zm-1.513-.987h.633v3.926c0 .179.026.313.078.402a.4.4 0 00.203.177 1.02 1.02 0 00.437.032l.108-.021.129.569a1.293 1.293 0 01-.18.048 1.314 1.314 0 01-.292.027c-.18 0-.354-.039-.526-.116a1.047 1.047 0 01-.424-.351 1.009 1.009 0 01-.166-.595v-4.098zm4.148 5.192c-.397 0-.74-.088-1.028-.263a1.767 1.767 0 01-.662-.74 2.526 2.526 0 01-.23-1.111c0-.422.076-.793.23-1.115.156-.324.372-.576.649-.757.279-.182.604-.273.976-.273.215 0 .427.036.636.107.21.072.4.188.571.349.172.159.309.37.41.633.102.263.153.586.153.971v.268h-3.175v-.547h2.532c0-.233-.047-.44-.14-.623a1.048 1.048 0 00-.391-.431 1.093 1.093 0 00-.596-.159c-.252 0-.47.063-.654.188a1.236 1.236 0 00-.421.483 1.416 1.416 0 00-.148.638v.365c0 .311.054.575.161.791.11.215.26.378.453.491.194.111.418.166.674.166.166 0 .316-.023.45-.069a.973.973 0 00.352-.215.977.977 0 00.228-.359l.611.171a1.35 1.35 0 01-.325.547c-.151.156-.34.278-.563.365a2.085 2.085 0 01-.753.129zm2.668-.086v-4.119h.612v.622h.043a.988.988 0 01.407-.496 1.2 1.2 0 01.665-.191 6.266 6.266 0 01.333.011v.644a1.598 1.598 0 00-.147-.025 1.513 1.513 0 00-.24-.018c-.2 0-.378.042-.536.126a.925.925 0 00-.504.839v2.607h-.633zm5.342 1.545a1.377 1.377 0 01-.461-.075l.16-.558c.154.039.29.054.408.043a.493.493 0 00.314-.158c.093-.093.178-.244.255-.454l.118-.322-1.523-4.14h.686l1.137 3.282h.043l1.137-3.282h.687l-1.749 4.72a1.776 1.776 0 01-.292.528 1.1 1.1 0 01-.405.314 1.248 1.248 0 01-.515.102zm5.322-1.459c-.371 0-.698-.089-.978-.266a1.8 1.8 0 01-.655-.743c-.156-.318-.233-.69-.233-1.115 0-.429.078-.804.233-1.124.157-.32.376-.569.654-.746a1.8 1.8 0 01.98-.265c.371 0 .697.088.976.265.28.177.499.426.654.746.157.32.236.695.236 1.124 0 .425-.079.797-.236 1.115a1.775 1.775 0 01-.654.743 1.783 1.783 0 01-.977.266zm0-.569c.283 0 .515-.072.698-.217a1.28 1.28 0 00.405-.571c.087-.236.131-.492.131-.767a2.21 2.21 0 00-.131-.77 1.3 1.3 0 00-.405-.577c-.183-.146-.415-.22-.698-.22-.282 0-.514.074-.697.22a1.3 1.3 0 00-.405.577 2.21 2.21 0 00-.131.77c0 .275.043.531.131.767.088.236.223.426.405.571.182.145.415.217.697.217zm5.43-1.201v-2.435h.632v4.119h-.633v-.697h-.042a1.346 1.346 0 01-.451.533c-.204.145-.461.218-.773.218-.257 0-.486-.057-.686-.169a1.185 1.185 0 01-.472-.515c-.115-.231-.172-.521-.172-.872v-2.617h.633v2.574c0 .301.084.54.252.719.17.179.386.268.65.268.157 0 .317-.04.48-.121.164-.08.302-.203.412-.37.113-.166.17-.378.17-.635zm1.792 1.684v-4.119h.611v.622h.043a.988.988 0 01.408-.496 1.2 1.2 0 01.665-.191 6.279 6.279 0 01.332.011v.644a1.591 1.591 0 00-.147-.025 1.513 1.513 0 00-.239-.018c-.2 0-.379.042-.536.126a.925.925 0 00-.504.839v2.607h-.633zm4.794-1.126v-.548l2.414-3.819h.397v.848h-.268l-1.824 2.886v.043h3.25v.59h-3.969zm2.586 1.126v-5.493h.633v5.493h-.633zm4.76-2.65v.59h-2.403v-.59h2.403zm2.669 2.736a1.62 1.62 0 01-.91-.26 1.759 1.759 0 01-.616-.741c-.149-.32-.223-.698-.223-1.134 0-.433.074-.808.223-1.126a1.72 1.72 0 01.62-.738c.264-.173.57-.26.917-.26.268 0 .48.045.635.134.158.088.277.188.36.3.084.111.149.202.195.274h.054v-2.028h.633v5.493h-.612v-.633h-.075a3.75 3.75 0 01-.198.284 1.163 1.163 0 01-.368.303c-.159.088-.371.132-.635.132zm.086-.569c.254 0 .468-.066.643-.198.176-.134.309-.319.4-.555a2.3 2.3 0 00.137-.824c0-.307-.045-.576-.134-.807a1.185 1.185 0 00-.397-.542 1.062 1.062 0 00-.65-.196c-.267 0-.491.069-.67.207-.177.136-.31.321-.4.555a2.211 2.211 0 00-.13.783c0 .293.044.56.133.799.091.238.225.428.403.569.178.14.4.209.665.209zm3.049.483v-4.119h.633v4.119h-.633zm.322-4.806a.45.45 0 01-.319-.126.404.404 0 01-.132-.303c0-.118.044-.219.132-.303a.45.45 0 01.319-.126.44.44 0 01.316.126c.09.084.134.185.134.303a.399.399 0 01-.134.303.44.44 0 01-.316.126zm3.133 6.437a2.36 2.36 0 01-.788-.118 1.669 1.669 0 01-.896-.708l.504-.354a4 4 0 00.217.257c.088.098.208.183.36.255.153.073.355.11.603.11.333 0 .607-.081.824-.242.216-.16.324-.413.324-.756v-.837h-.054a3.269 3.269 0 01-.198.279 1.132 1.132 0 01-.365.293c-.157.084-.37.126-.638.126-.333 0-.631-.079-.896-.236a1.664 1.664 0 01-.625-.687c-.152-.3-.228-.665-.228-1.094 0-.422.074-.79.223-1.102a1.72 1.72 0 01.619-.73c.265-.173.571-.26.918-.26.268 0 .481.045.638.134.159.088.281.188.365.3.085.111.152.202.198.274h.064v-.654h.612v4.237c0 .354-.08.642-.241.864-.16.223-.374.387-.644.49a2.419 2.419 0 01-.896.159zm-.021-2.264c.254 0 .468-.058.643-.174a1.08 1.08 0 00.4-.502c.091-.218.137-.479.137-.783 0-.297-.045-.559-.134-.786a1.18 1.18 0 00-.397-.533 1.065 1.065 0 00-.649-.194c-.269 0-.492.068-.671.204-.177.136-.31.319-.399.547a2.109 2.109 0 00-.132.762c0 .286.045.539.134.759.091.218.226.39.403.515.178.123.4.185.665.185zm2.961.633v-4.119h.633v4.119h-.633zm.321-4.806a.451.451 0 01-.319-.126.407.407 0 01-.131-.303c0-.118.044-.219.131-.303a.451.451 0 01.319-.126c.124 0 .229.042.317.126a.402.402 0 01.134.303.402.402 0 01-.134.303.442.442 0 01-.317.126zm3.262.687v.536h-2.134v-.536h2.134zm-1.512-.987h.633v3.926c0 .179.026.313.077.402a.402.402 0 00.204.177 1.003 1.003 0 00.437.032l.108-.021.128.569a1.322 1.322 0 01-.472.075 1.27 1.27 0 01-.525-.116 1.05 1.05 0 01-.424-.351 1.007 1.007 0 01-.166-.595v-4.098zm6.262 5.192c-.386 0-.719-.091-.998-.274a1.783 1.783 0 01-.643-.753 2.557 2.557 0 01-.226-1.097c0-.419.077-.788.231-1.108a1.83 1.83 0 01.649-.754c.279-.182.605-.273.976-.273.29 0 .551.054.784.161.232.107.422.257.571.45.148.193.24.419.276.676h-.633a.975.975 0 00-.322-.499c-.164-.146-.386-.22-.665-.22a1.11 1.11 0 00-.649.194 1.252 1.252 0 00-.432.539 1.99 1.99 0 00-.153.812c0 .319.051.596.151.832.102.236.245.419.429.549.186.131.404.196.654.196.165 0 .314-.028.448-.086a.925.925 0 00.341-.246.945.945 0 00.198-.386h.633a1.472 1.472 0 01-.265.657c-.14.193-.325.346-.556.461a1.78 1.78 0 01-.799.169zm3.758.011c-.261 0-.498-.05-.711-.148a1.215 1.215 0 01-.507-.432 1.217 1.217 0 01-.188-.686c0-.236.047-.428.14-.574a.978.978 0 01.373-.349c.155-.084.327-.147.514-.188.19-.043.38-.077.572-.102.25-.032.453-.056.609-.072a.946.946 0 00.343-.088c.073-.042.11-.113.11-.215v-.022c0-.264-.073-.47-.217-.616-.144-.147-.361-.22-.652-.22-.302 0-.539.066-.711.198a1.172 1.172 0 00-.362.424l-.601-.215c.108-.25.251-.445.429-.584.181-.142.378-.24.59-.295.215-.058.426-.086.633-.086.133 0 .285.016.456.048.174.031.341.094.502.191.163.096.298.242.405.437.107.195.161.456.161.783v2.714h-.633v-.558h-.032c-.043.09-.115.185-.215.287a1.22 1.22 0 01-.4.26 1.527 1.527 0 01-.608.108zm.096-.569c.25 0 .461-.049.633-.148a1.004 1.004 0 00.526-.871v-.579c-.027.032-.086.061-.177.088-.09.025-.193.047-.311.067a12.649 12.649 0 01-.606.081 2.402 2.402 0 00-.462.104.8.8 0 00-.343.212.54.54 0 00-.129.381c0 .22.082.386.244.499.165.111.373.166.625.166zm2.947.472v-4.119h.611v.622h.043a.987.987 0 01.408-.496 1.2 1.2 0 01.665-.191 6.299 6.299 0 01.333.011v.644a1.642 1.642 0 00-.148-.025 1.503 1.503 0 00-.238-.018c-.201 0-.38.042-.537.126a.928.928 0 00-.504.839v2.607h-.633zm4.24.086c-.343 0-.646-.087-.909-.26a1.763 1.763 0 01-.617-.741c-.148-.32-.222-.698-.222-1.134 0-.433.074-.808.222-1.126.149-.319.355-.565.62-.738.264-.173.57-.26.917-.26.268 0 .48.045.636.134.157.088.277.188.359.3.084.111.149.202.196.274h.053v-2.028h.633v5.493h-.611v-.633h-.075c-.047.075-.113.17-.199.284a1.17 1.17 0 01-.367.303c-.159.088-.371.132-.636.132zm.086-.569c.254 0 .468-.066.644-.198.175-.134.308-.319.399-.555a2.3 2.3 0 00.137-.824c0-.307-.045-.576-.134-.807a1.178 1.178 0 00-.397-.542 1.06 1.06 0 00-.649-.196c-.268 0-.492.069-.67.207a1.235 1.235 0 00-.4.555 2.202 2.202 0 00-.132.783c0 .293.045.56.135.799.091.238.225.428.402.569.179.14.4.209.665.209zm5.174 2.028v-5.664h.611v.654h.075c.047-.072.111-.163.193-.274.084-.112.204-.212.36-.3.157-.089.37-.134.638-.134.347 0 .653.087.917.26.265.173.471.419.62.738.148.318.222.693.222 1.126 0 .436-.074.814-.222 1.134a1.763 1.763 0 01-.617.741c-.263.173-.566.26-.909.26-.265 0-.477-.044-.636-.132a1.158 1.158 0 01-.367-.303 4.137 4.137 0 01-.199-.284h-.054v2.178h-.632zm.622-3.605c0 .311.045.586.137.824.091.236.224.421.399.555.175.132.39.198.644.198.264 0 .485-.069.662-.209.179-.141.313-.331.403-.569.091-.239.136-.506.136-.799 0-.289-.044-.55-.134-.783a1.212 1.212 0 00-.399-.555c-.177-.138-.4-.207-.668-.207-.258 0-.474.066-.649.196-.175.129-.308.31-.397.542-.09.231-.134.5-.134.807zm3.98 2.06v-4.119h.633v4.119h-.633zm.322-4.806a.448.448 0 01-.319-.126.404.404 0 01-.132-.303c0-.118.044-.219.132-.303a.448.448 0 01.319-.126.44.44 0 01.316.126c.09.084.134.185.134.303a.399.399 0 01-.134.303.44.44 0 01-.316.126zm2.103 2.328v2.478h-.633v-4.119h.612v.643h.053c.097-.209.243-.377.44-.504.197-.129.451-.193.762-.193.279 0 .523.057.732.172.209.112.372.284.488.514.116.229.174.519.174.869v2.618h-.633v-2.575c0-.323-.084-.575-.252-.756-.168-.182-.398-.274-.692-.274-.202 0-.382.044-.541.132a.931.931 0 00-.373.383 1.27 1.27 0 00-.137.612zm7.701-1.641v.536h-2.135v-.536h2.135zm-1.513-.987h.633v3.926c0 .179.026.313.078.402a.394.394 0 00.204.177 1.024 1.024 0 00.437.032l.107-.021.129.569a1.3 1.3 0 01-.18.048 1.312 1.312 0 01-.292.027c-.179 0-.354-.039-.526-.116a1.05 1.05 0 01-.424-.351 1.007 1.007 0 01-.166-.595v-4.098zm4.094 5.192c-.372 0-.698-.089-.979-.266a1.796 1.796 0 01-.654-.743c-.156-.318-.234-.69-.234-1.115 0-.429.078-.804.234-1.124.157-.32.375-.569.654-.746.281-.177.607-.265.979-.265s.697.088.976.265c.281.177.499.426.655.746.157.32.236.695.236 1.124 0 .425-.079.797-.236 1.115a1.777 1.777 0 01-.655.743 1.782 1.782 0 01-.976.266zm0-.569c.283 0 .515-.072.697-.217.183-.145.318-.335.405-.571a2.18 2.18 0 00.132-.767 2.2 2.2 0 00-.132-.77 1.29 1.29 0 00-.405-.577c-.182-.146-.414-.22-.697-.22-.282 0-.515.074-.697.22a1.29 1.29 0 00-.405.577 2.2 2.2 0 00-.132.77c0 .275.044.531.132.767.087.236.222.426.405.571.182.145.415.217.697.217zm6.631.569c-.387 0-.719-.091-.998-.274a1.778 1.778 0 01-.644-.753 2.557 2.557 0 01-.225-1.097c0-.419.077-.788.231-1.108.155-.322.371-.573.649-.754.279-.182.604-.273.976-.273.289 0 .551.054.783.161.232.107.423.257.571.45.149.193.241.419.276.676h-.632a.988.988 0 00-.322-.499c-.165-.146-.387-.22-.665-.22-.247 0-.464.065-.649.194a1.238 1.238 0 00-.432.539 1.99 1.99 0 00-.153.812c0 .319.05.596.15.832.102.236.245.419.429.549.186.131.404.196.655.196.164 0 .313-.028.447-.086a.917.917 0 00.54-.632h.632a1.46 1.46 0 01-.82 1.118 1.783 1.783 0 01-.799.169zm4.218 0c-.372 0-.698-.089-.979-.266a1.796 1.796 0 01-.654-.743c-.156-.318-.233-.69-.233-1.115 0-.429.077-.804.233-1.124.157-.32.375-.569.654-.746.281-.177.607-.265.979-.265s.698.088.977.265c.28.177.498.426.654.746.157.32.236.695.236 1.124 0 .425-.079.797-.236 1.115a1.782 1.782 0 01-.654.743 1.786 1.786 0 01-.977.266zm0-.569c.283 0 .515-.072.698-.217.182-.145.317-.335.405-.571.087-.236.131-.492.131-.767 0-.276-.044-.532-.131-.77a1.306 1.306 0 00-.405-.577c-.183-.146-.415-.22-.698-.22-.282 0-.515.074-.697.22a1.306 1.306 0 00-.405.577 2.2 2.2 0 00-.131.77c0 .275.043.531.131.767.088.236.223.426.405.571.182.145.415.217.697.217zm3.466-1.995v2.478h-.633v-4.119h.612v.643h.053c.097-.209.243-.377.44-.504.197-.129.451-.193.762-.193.279 0 .523.057.732.172.209.112.372.284.488.514.116.229.174.519.174.869v2.618h-.633v-2.575c0-.323-.084-.575-.252-.756-.168-.182-.398-.274-.692-.274-.202 0-.382.044-.541.132a.931.931 0 00-.373.383 1.27 1.27 0 00-.137.612zm5.619-1.641v.536h-2.22v-.536h2.22zm-1.555 4.119v-4.688c0-.236.055-.433.166-.59.111-.157.255-.275.432-.354a1.36 1.36 0 01.561-.118c.155 0 .282.012.38.037.099.025.172.049.22.07l-.182.547a4.563 4.563 0 00-.134-.04.822.822 0 00-.22-.024c-.209 0-.36.053-.453.158-.092.106-.137.26-.137.464v4.538h-.633zm2.443 0v-4.119h.632v4.119h-.632zm.321-4.806a.451.451 0 01-.319-.126.407.407 0 01-.131-.303c0-.118.044-.219.131-.303a.451.451 0 01.319-.126c.124 0 .229.042.317.126a.402.402 0 01.134.303.402.402 0 01-.134.303.442.442 0 01-.317.126zm1.471 4.806v-4.119h.611v.622h.043a.987.987 0 01.408-.496 1.2 1.2 0 01.665-.191 6.235 6.235 0 01.333.011v.644a1.642 1.642 0 00-.148-.025 1.516 1.516 0 00-.239-.018c-.2 0-.379.042-.536.126a.92.92 0 00-.504.839v2.607h-.633zm2.81 0v-4.119h.611v.643h.054c.086-.22.224-.39.416-.512.191-.123.421-.185.689-.185.272 0 .498.062.678.185.183.122.325.292.427.512h.043c.105-.213.264-.382.475-.507.211-.127.464-.19.759-.19.368 0 .669.115.903.346.235.229.352.585.352 1.07v2.757h-.633v-2.757c0-.304-.083-.521-.25-.652a.925.925 0 00-.587-.196c-.29 0-.514.088-.673.263a.941.941 0 00-.239.66v2.682h-.644v-2.821a.74.74 0 00-.228-.566.815.815 0 00-.587-.218.865.865 0 00-.461.132.981.981 0 00-.343.365 1.07 1.07 0 00-.129.533v2.575h-.633zm10.48-4.119v.536h-2.135v-.536h2.135zm-1.513-.987h.633v3.926c0 .179.026.313.078.402a.394.394 0 00.204.177 1.024 1.024 0 00.437.032l.107-.021.129.569a1.3 1.3 0 01-.18.048 1.312 1.312 0 01-.292.027c-.179 0-.354-.039-.526-.116a1.05 1.05 0 01-.424-.351 1.007 1.007 0 01-.166-.595v-4.098zm3.186 2.628v2.478h-.633v-5.493h.633v2.017h.054c.096-.213.241-.382.434-.507.195-.127.454-.19.778-.19.281 0 .527.056.738.169.211.111.374.281.49.512.118.229.177.52.177.874v2.618h-.632v-2.575c0-.327-.085-.58-.255-.759-.168-.18-.402-.271-.7-.271-.208 0-.394.044-.558.132a.949.949 0 00-.386.383c-.093.168-.14.372-.14.612zm3.829 2.478v-4.119h.633v4.119h-.633zm.322-4.806a.45.45 0 01-.319-.126.403.403 0 01-.131-.303c0-.118.043-.219.131-.303a.45.45 0 01.319-.126c.124 0 .229.042.317.126a.402.402 0 01.134.303.402.402 0 01-.134.303.442.442 0 01-.317.126zm4.389 1.609l-.569.161a1.043 1.043 0 00-.158-.276.783.783 0 00-.279-.226 1.013 1.013 0 00-.453-.088c-.252 0-.463.058-.631.174-.166.115-.249.26-.249.437a.45.45 0 00.172.373c.114.091.293.167.536.228l.611.15c.369.09.643.227.824.411a.96.96 0 01.271.705c0 .236-.068.447-.204.633a1.35 1.35 0 01-.563.44 2.063 2.063 0 01-.842.161c-.421 0-.768-.091-1.044-.274-.275-.182-.449-.448-.523-.799l.601-.15a.83.83 0 00.325.499c.16.111.371.166.63.166.295 0 .529-.063.702-.188.176-.127.263-.279.263-.456a.478.478 0 00-.15-.359c-.1-.098-.254-.172-.461-.22l-.687-.161c-.377-.089-.654-.228-.831-.416a1.006 1.006 0 01-.263-.71c0-.233.065-.438.196-.617a1.33 1.33 0 01.539-.421c.229-.102.488-.153.778-.153.407 0 .727.089.96.268.234.179.4.415.499.708zm3.152 4.742v-5.664h.611v.654h.075c.047-.072.111-.163.193-.274.084-.112.204-.212.36-.3.157-.089.37-.134.638-.134.347 0 .653.087.917.26.265.173.471.419.62.738.148.318.222.693.222 1.126 0 .436-.074.814-.222 1.134a1.763 1.763 0 01-.617.741c-.263.173-.566.26-.909.26-.265 0-.477-.044-.636-.132a1.158 1.158 0 01-.367-.303 4.137 4.137 0 01-.199-.284h-.053v2.178h-.633zm.622-3.605c0 .311.045.586.137.824.091.236.224.421.399.555.175.132.39.198.644.198.265 0 .485-.069.662-.209.179-.141.313-.331.403-.569.091-.239.136-.506.136-.799 0-.289-.044-.55-.134-.783a1.205 1.205 0 00-.399-.555c-.177-.138-.4-.207-.668-.207-.258 0-.474.066-.649.196-.175.129-.308.31-.397.542-.089.231-.134.5-.134.807zm5.192 2.157c-.261 0-.498-.05-.711-.148a1.219 1.219 0 01-.506-.432 1.209 1.209 0 01-.188-.686c0-.236.046-.428.139-.574a.978.978 0 01.373-.349 1.96 1.96 0 01.515-.188c.19-.043.38-.077.571-.102.251-.032.454-.056.609-.072a.94.94 0 00.343-.088c.074-.042.11-.113.11-.215v-.022c0-.264-.072-.47-.217-.616-.143-.147-.36-.22-.652-.22-.302 0-.539.066-.71.198a1.162 1.162 0 00-.362.424l-.601-.215c.107-.25.25-.445.429-.584.18-.142.377-.24.59-.295.215-.058.425-.086.633-.086.132 0 .284.016.456.048.173.031.34.094.501.191.163.096.298.242.405.437.108.195.161.456.161.783v2.714h-.633v-.558h-.032c-.043.09-.114.185-.214.287a1.243 1.243 0 01-.4.26 1.53 1.53 0 01-.609.108zm.097-.569c.25 0 .461-.049.633-.148a1.001 1.001 0 00.525-.871v-.579c-.027.032-.086.061-.177.088a3.058 3.058 0 01-.311.067 12.587 12.587 0 01-.606.081 2.41 2.41 0 00-.461.104.804.804 0 00-.344.212.544.544 0 00-.128.381c0 .22.081.386.244.499.164.111.373.166.625.166zm3.207 2.017a1.373 1.373 0 01-.462-.075l.161-.558c.154.039.29.054.408.043a.493.493 0 00.314-.158c.093-.093.178-.244.255-.454l.118-.322-1.524-4.14h.687l1.137 3.282h.043l1.137-3.282h.687l-1.749 4.72a1.786 1.786 0 01-.292.528 1.112 1.112 0 01-.405.314 1.25 1.25 0 01-.515.102zm3.796-1.545v-4.119h.612v.643h.053c.086-.22.225-.39.416-.512.191-.123.421-.185.689-.185.272 0 .498.062.679.185.182.122.324.292.426.512h.043c.105-.213.264-.382.475-.507.211-.127.464-.19.759-.19.368 0 .669.115.904.346.234.229.351.585.351 1.07v2.757h-.633v-2.757c0-.304-.083-.521-.249-.652a.93.93 0 00-.588-.196c-.29 0-.514.088-.673.263a.941.941 0 00-.239.66v2.682h-.643v-2.821a.74.74 0 00-.228-.566.817.817 0 00-.588-.218.865.865 0 00-.461.132.981.981 0 00-.343.365 1.07 1.07 0 00-.129.533v2.575h-.633zm8.291.086c-.397 0-.739-.088-1.027-.263a1.762 1.762 0 01-.662-.74 2.523 2.523 0 01-.231-1.111c0-.422.077-.793.231-1.115.155-.324.372-.576.649-.757.279-.182.604-.273.976-.273.215 0 .426.036.636.107.209.072.399.188.571.349.172.159.308.37.41.633.102.263.153.586.153.971v.268h-3.175v-.547h2.531c0-.233-.046-.44-.139-.623a1.047 1.047 0 00-.392-.431 1.09 1.09 0 00-.595-.159c-.252 0-.47.063-.654.188a1.239 1.239 0 00-.422.483 1.42 1.42 0 00-.147.638v.365c0 .311.054.575.161.791.109.215.26.378.453.491.193.111.418.166.673.166.167 0 .317-.023.451-.069a.967.967 0 00.351-.215.96.96 0 00.228-.359l.612.171c-.065.208-.173.39-.325.547-.152.156-.34.278-.563.365a2.089 2.089 0 01-.754.129zm3.302-2.564v2.478h-.633v-4.119h.611v.643h.054c.097-.209.243-.377.44-.504.197-.129.45-.193.762-.193.278 0 .523.057.732.172.209.112.372.284.488.514.116.229.174.519.174.869v2.618h-.633v-2.575c0-.323-.084-.575-.252-.756-.168-.182-.399-.274-.692-.274-.202 0-.382.044-.542.132a.935.935 0 00-.372.383 1.258 1.258 0 00-.137.612zm5.576-1.641v.536h-2.135v-.536h2.135zm-1.512-.987h.633v3.926c0 .179.026.313.077.402a.402.402 0 00.204.177 1.003 1.003 0 00.437.032l.108-.021.128.569a1.322 1.322 0 01-.472.075 1.27 1.27 0 01-.525-.116 1.05 1.05 0 01-.424-.351 1.007 1.007 0 01-.166-.595v-4.098z" fill="#0A0D13"/><rect x="83.622" y="127.035" width="21.608" height="22.448" rx="1.993" stroke="#ACACAC" stroke-width=".629"/><rect x="114.671" y="127.035" width="21.608" height="22.448" rx="1.993" stroke="#ACACAC" stroke-width=".629"/><rect x="145.719" y="127.035" width="21.608" height="22.448" rx="1.993" stroke="#ACACAC" stroke-width=".629"/><rect x="176.768" y="127.035" width="21.608" height="22.448" rx="1.993" stroke="#ACACAC" stroke-width=".629"/><rect x="41.14" y="215.881" width="199.72" height="22.783" rx="5" fill="#00B011"/><path d="M116.732 226.1h-1.044a1.017 1.017 0 00-.117-.36.918.918 0 00-.226-.272.995.995 0 00-.32-.172 1.21 1.21 0 00-.388-.059c-.253 0-.473.062-.661.188a1.203 1.203 0 00-.436.544 2.155 2.155 0 00-.155.863c0 .348.052.64.155.877.105.237.251.415.439.536.187.121.404.181.651.181.138 0 .266-.018.383-.054.12-.037.225-.09.317-.16a.906.906 0 00.229-.26 1.02 1.02 0 00.129-.348l1.044.005c-.027.224-.094.44-.202.648a1.964 1.964 0 01-1.076.942c-.248.094-.528.14-.841.14-.436 0-.825-.098-1.168-.295a2.103 2.103 0 01-.811-.856c-.197-.373-.295-.826-.295-1.356 0-.533.1-.986.3-1.359.2-.374.472-.658.815-.854.344-.197.73-.295 1.159-.295.283 0 .545.039.787.119.243.079.458.195.646.348.187.151.34.336.457.555.12.22.196.471.229.754zm2.376 3.244c-.37 0-.691-.078-.961-.236a1.611 1.611 0 01-.622-.663 2.135 2.135 0 01-.219-.989c0-.378.073-.709.219-.992a1.59 1.59 0 01.622-.662c.27-.159.591-.239.961-.239s.69.08.958.239c.27.157.479.378.625.662.146.283.219.614.219.992 0 .375-.073.705-.219.989a1.612 1.612 0 01-.625.663c-.268.158-.588.236-.958.236zm.005-.786a.63.63 0 00.422-.144.892.892 0 00.255-.395c.058-.167.088-.357.088-.57 0-.213-.03-.403-.088-.57a.901.901 0 00-.255-.396.63.63 0 00-.422-.145.656.656 0 00-.43.145.89.89 0 00-.259.396 1.733 1.733 0 00-.086.57c0 .213.028.403.086.57a.881.881 0 00.259.395c.117.096.26.144.43.144zm3.473-1.402v2.117h-1.016v-3.662h.968v.646h.043a1.02 1.02 0 01.408-.505c.191-.126.422-.189.694-.189.254 0 .476.056.665.167.189.111.336.27.441.477.105.205.157.45.157.734v2.332h-1.015v-2.151c.001-.224-.056-.399-.172-.524a.617.617 0 00-.479-.191.739.739 0 00-.363.088.62.62 0 00-.243.258.898.898 0 00-.088.403zm5.13-1.545v.763h-2.26v-.763h2.26zm-1.743 3.662v-3.927c0-.265.052-.485.155-.66a.993.993 0 01.429-.393c.181-.088.387-.132.618-.132.155 0 .298.012.426.036.131.024.228.046.291.065l-.181.762a1.432 1.432 0 00-.148-.035.93.93 0 00-.176-.017c-.15 0-.254.035-.313.105a.431.431 0 00-.088.288v3.908h-1.013zm2.363 0v-3.662h1.016v3.662h-1.016zm.51-4.134a.55.55 0 01-.388-.15.487.487 0 010-.725.545.545 0 01.388-.153.54.54 0 01.387.153.485.485 0 010 .725.547.547 0 01-.387.15zm1.319 4.134v-3.662h.985v.639h.038a.95.95 0 01.336-.515.884.884 0 01.544-.177 1.634 1.634 0 01.319.036v.901a1.784 1.784 0 00-.429-.054.811.811 0 00-.4.097.725.725 0 00-.277.267.772.772 0 00-.1.396v2.072h-1.016zm2.747 0v-3.662h.968v.646h.043c.076-.215.204-.384.382-.508.178-.124.39-.186.638-.186.252 0 .465.063.642.189a.889.889 0 01.353.505h.038a.969.969 0 01.405-.503 1.26 1.26 0 01.698-.191c.342 0 .62.109.832.327.215.216.322.523.322.92v2.463h-1.013v-2.263c0-.203-.054-.356-.162-.457a.567.567 0 00-.405-.153.547.547 0 00-.432.176.67.67 0 00-.155.461v2.236h-.984v-2.284a.59.59 0 00-.155-.429.53.53 0 00-.403-.16.56.56 0 00-.305.086.58.58 0 00-.212.236.744.744 0 00-.079.353v2.198h-1.016zm7.696 0v-4.883h1.927c.37 0 .685.071.946.212.261.14.459.335.596.585.138.247.207.534.207.858 0 .324-.069.61-.209.858-.14.248-.343.441-.608.579-.264.139-.584.208-.959.208h-1.227v-.827h1.061c.198 0 .362-.035.491-.103a.678.678 0 00.29-.288.896.896 0 00.098-.427.875.875 0 00-.098-.425.651.651 0 00-.29-.283 1.057 1.057 0 00-.496-.103h-.696v4.039h-1.033zm5.274.069c-.234 0-.442-.041-.625-.122a1.005 1.005 0 01-.434-.364 1.095 1.095 0 01-.157-.606c0-.203.037-.374.112-.513a.905.905 0 01.305-.333c.129-.085.275-.148.439-.191.165-.043.338-.073.519-.091.213-.022.385-.043.515-.062a.715.715 0 00.284-.09.2.2 0 00.088-.177v-.014c0-.151-.047-.268-.143-.35-.094-.083-.227-.124-.4-.124a.715.715 0 00-.437.121.562.562 0 00-.214.301l-.939-.077c.047-.222.141-.414.281-.577.14-.163.32-.289.541-.376.223-.089.48-.134.773-.134.203 0 .398.024.584.072.187.047.353.121.498.221.146.101.261.229.346.387.084.155.126.342.126.56v2.47h-.963v-.508h-.029a1.043 1.043 0 01-.236.303 1.08 1.08 0 01-.355.202 1.458 1.458 0 01-.479.072zm.291-.701a.848.848 0 00.395-.088.708.708 0 00.27-.243.629.629 0 00.097-.346v-.389a.527.527 0 01-.131.058 2.737 2.737 0 01-.183.045l-.205.036-.186.026a1.25 1.25 0 00-.313.083.497.497 0 00-.207.155.38.38 0 00-.074.239c0 .138.05.244.15.317a.662.662 0 00.387.107zm3.055 2.005c-.129 0-.25-.01-.363-.031a1.323 1.323 0 01-.276-.074l.229-.758c.119.036.226.056.321.059a.41.41 0 00.251-.066.507.507 0 00.174-.243l.059-.155-1.313-3.767h1.068l.758 2.689h.038l.765-2.689h1.076l-1.424 4.057a1.675 1.675 0 01-.279.515 1.137 1.137 0 01-.441.341 1.543 1.543 0 01-.643.122zm3.306-1.373v-3.662h.968v.646h.043c.076-.215.203-.384.381-.508a1.09 1.09 0 01.639-.186c.251 0 .465.063.642.189a.883.883 0 01.352.505h.039a.969.969 0 01.405-.503 1.26 1.26 0 01.698-.191c.342 0 .619.109.832.327.215.216.322.523.322.92v2.463h-1.013v-2.263c0-.203-.054-.356-.162-.457a.567.567 0 00-.405-.153.546.546 0 00-.432.176.67.67 0 00-.155.461v2.236h-.984v-2.284a.59.59 0 00-.155-.429.53.53 0 00-.403-.16.56.56 0 00-.305.086.59.59 0 00-.213.236.756.756 0 00-.078.353v2.198h-1.016zm7.792.071c-.376 0-.701-.076-.972-.229a1.562 1.562 0 01-.625-.653c-.146-.283-.219-.617-.219-1.004 0-.376.073-.707.219-.991.146-.285.352-.506.617-.665.267-.159.581-.239.94-.239.241 0 .466.039.674.117.21.076.393.192.549.346.157.154.279.348.367.581.087.232.131.504.131.816v.279h-3.092v-.63h2.136a.783.783 0 00-.095-.388.689.689 0 00-.265-.265.757.757 0 00-.389-.098.78.78 0 00-.41.108.757.757 0 00-.276.283.806.806 0 00-.103.394v.598c0 .181.034.338.1.47a.74.74 0 00.289.305.873.873 0 00.441.107.955.955 0 00.31-.048.625.625 0 00.393-.376l.939.062a1.274 1.274 0 01-.293.591 1.47 1.47 0 01-.567.391 2.147 2.147 0 01-.799.138zm3.359-2.188v2.117h-1.015v-3.662h.968v.646h.043c.081-.213.216-.381.407-.505.191-.126.422-.189.694-.189.254 0 .476.056.665.167.189.111.336.27.441.477.105.205.157.45.157.734v2.332h-1.015v-2.151c.001-.224-.056-.399-.172-.524a.617.617 0 00-.479-.191.735.735 0 00-.362.088.615.615 0 00-.244.258.898.898 0 00-.088.403zm5.109-1.545v.763h-2.206v-.763h2.206zm-1.705-.877h1.016v3.413c0 .094.014.167.042.22a.24.24 0 00.12.107.484.484 0 00.181.031.863.863 0 00.143-.012l.11-.021.159.755a2.522 2.522 0 01-.214.055 1.75 1.75 0 01-.336.041 1.547 1.547 0 01-.644-.098.903.903 0 01-.427-.348 1.058 1.058 0 01-.15-.596v-3.547z" fill="#F3F3F3"/><path d="M41.29 251.043h.592l1.185 1.994h.05l1.185-1.994h.592l-1.543 2.511v1.761h-.517v-1.761l-1.544-2.511zm5.055 4.338c-.289 0-.543-.068-.761-.206a1.402 1.402 0 01-.51-.578 1.954 1.954 0 01-.18-.868c0-.333.06-.625.18-.874.123-.249.293-.442.51-.58.218-.137.472-.206.761-.206.29 0 .543.069.76.206.218.138.388.331.509.58.122.249.183.541.183.874 0 .331-.061.621-.183.868-.121.248-.291.44-.51.578a1.38 1.38 0 01-.759.206zm0-.442c.22 0 .4-.056.543-.169a.99.99 0 00.315-.444c.068-.184.102-.382.102-.597 0-.214-.034-.413-.102-.598a1.011 1.011 0 00-.315-.449.839.839 0 00-.543-.171c-.22 0-.4.057-.542.171a1.01 1.01 0 00-.315.449 1.714 1.714 0 00-.102.598c0 .215.034.413.102.597a.989.989 0 00.315.444.843.843 0 00.542.169zm4.223-.934v-1.894h.492v3.204h-.492v-.543h-.034a1.048 1.048 0 01-.35.415 1.01 1.01 0 01-.6.169c-.201 0-.38-.043-.535-.131a.92.92 0 01-.367-.401 1.517 1.517 0 01-.134-.677v-2.036h.493v2.002c0 .234.065.42.196.559.132.139.3.209.505.209a.833.833 0 00.373-.094.82.82 0 00.321-.288.862.862 0 00.132-.494zm1.394 1.31v-3.204h.475v.484h.034a.765.765 0 01.317-.386.93.93 0 01.517-.148 3.5 3.5 0 01.259.008v.501a1.023 1.023 0 00-.115-.019 1.1 1.1 0 00-.186-.015.876.876 0 00-.417.098.72.72 0 00-.392.653v2.028h-.492zm3.837 1.201v-4.405h.476v.509h.058c.037-.056.087-.127.15-.213a.874.874 0 01.28-.234c.123-.069.288-.104.497-.104.27 0 .507.067.713.202.206.135.366.326.482.574.115.247.173.539.173.876 0 .339-.058.633-.173.882a1.37 1.37 0 01-.48.576c-.204.135-.44.202-.707.202-.206 0-.37-.034-.494-.102a.915.915 0 01-.286-.235 3.01 3.01 0 01-.155-.222h-.041v1.694h-.493zm.484-2.803c0 .242.036.455.107.64a.964.964 0 00.31.432.806.806 0 00.501.154.809.809 0 00.515-.162.997.997 0 00.313-.443 1.73 1.73 0 00.107-.621 1.68 1.68 0 00-.105-.609.933.933 0 00-.31-.432.821.821 0 00-.52-.161c-.2 0-.368.051-.505.152a.919.919 0 00-.308.422c-.07.179-.105.388-.105.628zm4.44 1.668a1.51 1.51 0 01-.8-.204 1.375 1.375 0 01-.515-.576 1.96 1.96 0 01-.18-.863c0-.328.06-.618.18-.868.121-.252.29-.448.505-.588.217-.142.47-.213.76-.213.166 0 .33.028.494.083.162.056.31.146.444.272.134.123.24.287.32.492.078.204.118.456.118.755v.209h-2.47v-.426h1.97a1.05 1.05 0 00-.11-.484.816.816 0 00-.767-.459.886.886 0 00-.509.146.958.958 0 00-.327.376 1.099 1.099 0 00-.115.496v.284c0 .242.042.447.125.615a.905.905 0 00.353.382c.15.086.325.129.523.129.13 0 .246-.018.35-.054a.751.751 0 00.274-.167.757.757 0 00.177-.279l.476.133a1.06 1.06 0 01-.253.426 1.227 1.227 0 01-.438.283c-.173.067-.369.1-.586.1zm2.075-.066v-3.204h.475v.484h.034a.765.765 0 01.317-.386.931.931 0 01.517-.148 3.498 3.498 0 01.259.008v.501a1.02 1.02 0 00-.115-.019 1.1 1.1 0 00-.185-.015.876.876 0 00-.418.098.72.72 0 00-.392.653v2.028h-.492zm4.455-2.487l-.442.125a.818.818 0 00-.123-.214.599.599 0 00-.217-.176.786.786 0 00-.353-.069.845.845 0 00-.49.136c-.13.089-.194.202-.194.34 0 .122.044.219.133.29.09.071.229.13.418.177l.475.117c.287.07.5.176.64.319a.746.746 0 01.211.549.812.812 0 01-.158.492c-.104.145-.25.259-.438.342a1.59 1.59 0 01-.655.125c-.327 0-.597-.07-.812-.212a.943.943 0 01-.406-.622l.467-.117a.647.647 0 00.252.388.85.85 0 00.49.13c.23 0 .412-.049.547-.146.136-.099.204-.217.204-.355a.375.375 0 00-.116-.28.754.754 0 00-.36-.171l-.533-.125c-.294-.069-.51-.177-.647-.323a.785.785 0 01-.204-.553.79.79 0 01.152-.48c.103-.139.243-.248.42-.327a1.47 1.47 0 01.604-.119c.317 0 .566.069.747.209.182.139.312.322.388.55zm2.101 2.553a1.39 1.39 0 01-.761-.206 1.402 1.402 0 01-.51-.578 1.954 1.954 0 01-.18-.868c0-.333.06-.625.18-.874.123-.249.293-.442.51-.58.218-.137.472-.206.761-.206.29 0 .543.069.76.206.218.138.387.331.508.58.123.249.184.541.184.874 0 .331-.061.621-.184.868-.12.248-.29.44-.509.578a1.38 1.38 0 01-.759.206zm0-.442c.22 0 .4-.056.543-.169a.99.99 0 00.314-.444c.069-.184.103-.382.103-.597 0-.214-.034-.413-.102-.598a1.011 1.011 0 00-.316-.449.839.839 0 00-.542-.171c-.22 0-.4.057-.542.171a1.01 1.01 0 00-.315.449 1.714 1.714 0 00-.102.598c0 .215.034.413.102.597a.989.989 0 00.315.444.843.843 0 00.542.169zm2.696-1.552v1.928h-.493v-3.204h.476v.5h.042a.92.92 0 01.342-.392c.153-.1.35-.15.592-.15.217 0 .407.044.57.133a.907.907 0 01.38.401c.09.178.135.403.135.676v2.036h-.492v-2.003c0-.252-.066-.448-.196-.588-.131-.142-.31-.213-.539-.213a.86.86 0 00-.42.102.73.73 0 00-.29.299.982.982 0 00-.107.475zm3.886 2.003a1.29 1.29 0 01-.552-.115.95.95 0 01-.395-.336.946.946 0 01-.146-.534c0-.183.036-.332.109-.446a.758.758 0 01.29-.271c.12-.066.254-.114.4-.146.148-.034.296-.06.445-.08.194-.025.352-.043.473-.056a.73.73 0 00.267-.069c.057-.032.086-.087.086-.167v-.016c0-.206-.057-.366-.17-.48-.11-.114-.28-.171-.506-.171-.235 0-.42.051-.553.154a.913.913 0 00-.282.33l-.467-.167a1.13 1.13 0 01.334-.455c.14-.11.293-.186.459-.229a1.88 1.88 0 01.492-.067c.103 0 .221.012.355.037.135.024.265.073.39.149a.866.866 0 01.315.34c.083.151.125.354.125.609v2.111h-.492v-.434h-.025a.87.87 0 01-.167.223.957.957 0 01-.311.202 1.19 1.19 0 01-.474.084zm.075-.442a.982.982 0 00.493-.115.784.784 0 00.409-.678v-.451c-.021.025-.067.048-.138.069-.07.02-.15.037-.242.052-.09.014-.179.027-.265.038l-.206.025a1.95 1.95 0 00-.36.081.614.614 0 00-.266.165.42.42 0 00-.1.296.44.44 0 00.19.388c.127.086.29.13.486.13zm2.785-3.905v4.272h-.493v-4.272h.493zm3.763 4.338c-.267 0-.502-.067-.707-.202a1.363 1.363 0 01-.48-.576 2.08 2.08 0 01-.173-.882c0-.337.058-.629.174-.876.115-.248.276-.439.481-.574a1.27 1.27 0 01.714-.202c.208 0 .373.035.494.104a.846.846 0 01.28.234c.065.086.116.157.152.213h.042v-1.577h.492v4.272h-.476v-.493h-.058a3.041 3.041 0 01-.154.222.916.916 0 01-.286.235 1.027 1.027 0 01-.495.102zm.067-.442a.806.806 0 00.5-.154.963.963 0 00.312-.432 1.8 1.8 0 00.106-.64c0-.24-.035-.449-.104-.628a.919.919 0 00-.309-.422.825.825 0 00-.505-.152.83.83 0 00-.521.161.953.953 0 00-.311.432c-.068.18-.102.383-.102.609 0 .228.034.435.104.621.07.185.175.333.313.443a.818.818 0 00.517.162zm3.315.451c-.203 0-.388-.038-.553-.115a.95.95 0 01-.394-.336.945.945 0 01-.146-.534c0-.183.036-.332.108-.446a.758.758 0 01.29-.271c.121-.066.255-.114.4-.146.148-.034.296-.06.445-.08.195-.025.353-.043.474-.056a.73.73 0 00.267-.069c.056-.032.085-.087.085-.167v-.016c0-.206-.056-.366-.169-.48-.111-.114-.28-.171-.507-.171-.235 0-.42.051-.553.154a.912.912 0 00-.281.33l-.468-.167a1.13 1.13 0 01.334-.455c.14-.11.294-.186.46-.229.166-.045.33-.067.492-.067.102 0 .22.012.354.037.135.024.265.073.39.149a.868.868 0 01.315.34c.084.151.125.354.125.609v2.111h-.492v-.434h-.025a.87.87 0 01-.167.223.955.955 0 01-.31.202 1.19 1.19 0 01-.474.084zm.075-.442a.982.982 0 00.492-.115.784.784 0 00.41-.678v-.451c-.022.025-.068.048-.139.069-.07.02-.15.037-.242.052-.09.014-.178.027-.265.038l-.206.025a1.946 1.946 0 00-.359.081.614.614 0 00-.267.165.419.419 0 00-.1.296.44.44 0 00.19.388c.128.086.29.13.486.13zm3.685-2.837v.417h-1.66v-.417h1.66zm-1.176-.768h.492v3.054c0 .139.02.243.06.313a.31.31 0 00.16.137.618.618 0 00.206.034.81.81 0 00.133-.009l.084-.016.1.442a.992.992 0 01-.367.058.987.987 0 01-.41-.089.81.81 0 01-.329-.274.782.782 0 01-.13-.463v-3.187zm2.86 4.047c-.203 0-.388-.038-.553-.115a.95.95 0 01-.394-.336.945.945 0 01-.146-.534c0-.183.036-.332.108-.446a.758.758 0 01.29-.271c.121-.066.255-.114.4-.146.148-.034.296-.06.445-.08.195-.025.352-.043.473-.056a.73.73 0 00.267-.069c.057-.032.086-.087.086-.167v-.016c0-.206-.056-.366-.169-.48-.111-.114-.28-.171-.507-.171-.235 0-.42.051-.553.154a.912.912 0 00-.281.33l-.468-.167a1.13 1.13 0 01.334-.455c.14-.11.294-.186.46-.229.166-.045.33-.067.491-.067.103 0 .221.012.355.037.135.024.265.073.39.149a.868.868 0 01.315.34c.084.151.125.354.125.609v2.111h-.492v-.434h-.025a.87.87 0 01-.167.223.955.955 0 01-.31.202 1.19 1.19 0 01-.474.084zm.075-.442a.982.982 0 00.492-.115.784.784 0 00.409-.678v-.451c-.02.025-.067.048-.138.069-.07.02-.15.037-.242.052-.09.014-.178.027-.265.038l-.206.025a1.946 1.946 0 00-.359.081.614.614 0 00-.267.165.419.419 0 00-.1.296.44.44 0 00.19.388c.128.086.29.13.486.13zm4.67.367l-.976-3.204h.517l.692 2.453h.034l.684-2.453h.526l.675 2.444h.034l.692-2.444h.518l-.977 3.204h-.483l-.701-2.462h-.05l-.701 2.462h-.484zm4.047 0v-3.204h.492v3.204h-.492zm.25-3.738a.35.35 0 01-.248-.098.318.318 0 01-.103-.236c0-.092.035-.17.103-.236a.35.35 0 01.248-.098c.096 0 .178.033.246.098.07.066.104.144.104.236s-.034.17-.104.236a.344.344 0 01-.246.098zm1.636-.534v4.272h-.492v-4.272h.492zm1.394 0v4.272h-.492v-4.272h.492zm2.62 4.272v-4.272h.493v1.577h.041c.036-.056.087-.127.151-.213a.868.868 0 01.279-.234c.122-.069.288-.104.497-.104.269 0 .507.067.713.202.206.135.366.326.482.574.115.247.173.539.173.876 0 .339-.058.633-.173.882a1.37 1.37 0 01-.48.576c-.204.135-.44.202-.707.202a1.03 1.03 0 01-.495-.102.912.912 0 01-.285-.235 2.925 2.925 0 01-.155-.222h-.058v.493h-.476zm.484-1.602c0 .242.036.455.107.64a.965.965 0 00.31.432.81.81 0 00.501.154.807.807 0 00.515-.162.994.994 0 00.313-.443 1.73 1.73 0 00.107-.621 1.67 1.67 0 00-.105-.609.932.932 0 00-.31-.432.823.823 0 00-.52-.161c-.2 0-.368.051-.505.152a.916.916 0 00-.308.422c-.07.179-.105.388-.105.628zm4.441 1.668c-.308 0-.575-.068-.799-.204a1.379 1.379 0 01-.515-.576 1.968 1.968 0 01-.179-.863 2 2 0 01.179-.868c.121-.252.289-.448.505-.588.217-.142.47-.213.759-.213.167 0 .332.028.495.083.162.056.31.146.444.272.133.123.24.287.319.492.079.204.119.456.119.755v.209h-2.47v-.426h1.969c0-.181-.036-.342-.108-.484a.819.819 0 00-.768-.459.888.888 0 00-.509.146.952.952 0 00-.327.376 1.092 1.092 0 00-.115.496v.284c0 .242.042.447.125.615a.908.908 0 00.353.382c.15.086.324.129.523.129.13 0 .246-.018.351-.054a.753.753 0 00.273-.167.741.741 0 00.177-.279l.476.133c-.05.161-.134.303-.252.426a1.236 1.236 0 01-.439.283c-.173.067-.369.1-.586.1zm5.747-1.376v-1.894h.492v3.204h-.492v-.543h-.033a1.046 1.046 0 01-.351.415 1.006 1.006 0 01-.6.169c-.201 0-.379-.043-.534-.131a.921.921 0 01-.368-.401c-.089-.179-.133-.405-.133-.677v-2.036h.492v2.002c0 .234.066.42.196.559a.667.667 0 00.505.209.835.835 0 00.374-.094.824.824 0 00.321-.288.867.867 0 00.131-.494zm3.664-1.177l-.443.125a.777.777 0 00-.123-.214.59.59 0 00-.217-.176.782.782 0 00-.352-.069.843.843 0 00-.49.136c-.13.089-.194.202-.194.34 0 .122.044.219.133.29.089.071.228.13.417.177l.476.117c.287.07.5.176.64.319a.746.746 0 01.211.549.816.816 0 01-.158.492 1.054 1.054 0 01-.438.342 1.595 1.595 0 01-.655.125c-.327 0-.598-.07-.812-.212a.944.944 0 01-.407-.622l.468-.117a.643.643 0 00.252.388.85.85 0 00.49.13c.23 0 .412-.049.547-.146.136-.099.204-.217.204-.355a.375.375 0 00-.117-.28.753.753 0 00-.358-.171l-.534-.125c-.294-.069-.509-.177-.647-.323a.786.786 0 01-.205-.553.79.79 0 01.153-.48 1.03 1.03 0 01.419-.327c.178-.079.38-.119.605-.119.317 0 .566.069.747.209.182.139.311.322.388.55zm2.143 2.553c-.309 0-.576-.068-.799-.204a1.374 1.374 0 01-.516-.576 1.968 1.968 0 01-.179-.863 2 2 0 01.179-.868c.121-.252.29-.448.505-.588.217-.142.47-.213.759-.213.167 0 .332.028.495.083.163.056.311.146.444.272.134.123.24.287.319.492.08.204.119.456.119.755v.209h-2.47v-.426h1.97c0-.181-.037-.342-.109-.484a.817.817 0 00-.768-.459.888.888 0 00-.509.146.96.96 0 00-.327.376 1.105 1.105 0 00-.115.496v.284c0 .242.042.447.125.615a.908.908 0 00.353.382c.15.086.325.129.524.129.129 0 .246-.018.35-.054a.745.745 0 00.273-.167.756.756 0 00.178-.279l.475.133c-.05.161-.134.303-.252.426a1.223 1.223 0 01-.438.283c-.174.067-.37.1-.586.1zm3.285 0c-.267 0-.503-.067-.707-.202a1.356 1.356 0 01-.48-.576 2.087 2.087 0 01-.173-.882c0-.337.058-.629.173-.876.115-.248.276-.439.482-.574.206-.135.444-.202.713-.202.209 0 .374.035.495.104a.847.847 0 01.279.234c.066.086.116.157.152.213h.042v-1.577h.492v4.272h-.475v-.493h-.059a2.868 2.868 0 01-.154.222.917.917 0 01-.286.235 1.023 1.023 0 01-.494.102zm.067-.442a.805.805 0 00.5-.154.96.96 0 00.311-.432c.071-.185.107-.398.107-.64 0-.24-.035-.449-.105-.628a.916.916 0 00-.308-.422.827.827 0 00-.505-.152.83.83 0 00-.522.161.963.963 0 00-.311.432c-.068.18-.102.383-.102.609 0 .228.035.435.104.621.071.185.176.333.313.443a.82.82 0 00.518.162zm5.417-2.828v.417h-1.66v-.417h1.66zm-1.176-.768h.492v3.054c0 .139.02.243.06.313a.312.312 0 00.159.137.614.614 0 00.206.034.812.812 0 00.134-.009l.083-.016.1.442a.994.994 0 01-.367.058.99.99 0 01-.409-.089.806.806 0 01-.329-.274.784.784 0 01-.129-.463v-3.187zm3.184 4.038c-.289 0-.543-.068-.762-.206a1.407 1.407 0 01-.509-.578 1.954 1.954 0 01-.181-.868c0-.333.06-.625.181-.874.123-.249.292-.442.509-.58.219-.137.473-.206.762-.206.289 0 .542.069.759.206.218.138.388.331.509.58.122.249.184.541.184.874 0 .331-.062.621-.184.868-.121.248-.291.44-.509.578-.217.138-.47.206-.759.206zm0-.442c.219 0 .4-.056.542-.169a.987.987 0 00.315-.444c.068-.184.102-.382.102-.597 0-.214-.034-.413-.102-.598a1.008 1.008 0 00-.315-.449.84.84 0 00-.542-.171.84.84 0 00-.543.171 1.024 1.024 0 00-.315.449 1.719 1.719 0 00-.102.598c0 .215.034.413.102.597.069.184.174.332.315.444a.845.845 0 00.543.169zm3.855 1.577v-4.405h.476v.509h.058c.036-.056.086-.127.15-.213a.883.883 0 01.28-.234c.122-.069.288-.104.496-.104.27 0 .508.067.714.202.206.135.366.326.482.574.115.247.173.539.173.876 0 .339-.058.633-.173.882a1.37 1.37 0 01-.48.576c-.205.135-.44.202-.707.202a1.03 1.03 0 01-.495-.102.912.912 0 01-.285-.235 2.925 2.925 0 01-.155-.222h-.042v1.694h-.492zm.484-2.803c0 .242.036.455.107.64.07.184.174.328.31.432a.807.807 0 00.501.154.807.807 0 00.515-.162.994.994 0 00.313-.443 1.73 1.73 0 00.106-.621 1.67 1.67 0 00-.104-.609.934.934 0 00-.311-.432.818.818 0 00-.519-.161c-.2 0-.369.051-.505.152a.925.925 0 00-.309.422 1.74 1.74 0 00-.104.628zm3.096 1.602v-3.204h.475v.484h.034a.762.762 0 01.317-.386.93.93 0 01.517-.148 3.545 3.545 0 01.259.008v.501a1.034 1.034 0 00-.115-.019 1.095 1.095 0 00-.186-.015.879.879 0 00-.417.098.724.724 0 00-.392.653v2.028h-.492zm3.389.066c-.289 0-.543-.068-.761-.206a1.4 1.4 0 01-.509-.578 1.954 1.954 0 01-.181-.868c0-.333.06-.625.181-.874a1.4 1.4 0 01.509-.58c.218-.137.472-.206.761-.206.29 0 .543.069.76.206.218.138.388.331.509.58.122.249.183.541.183.874 0 .331-.061.621-.183.868-.121.248-.291.44-.509.578-.217.138-.47.206-.76.206zm0-.442c.22 0 .401-.056.543-.169a.987.987 0 00.315-.444c.068-.184.102-.382.102-.597 0-.214-.034-.413-.102-.598a1.008 1.008 0 00-.315-.449.84.84 0 00-.543-.171.84.84 0 00-.542.171 1.008 1.008 0 00-.315.449 1.719 1.719 0 00-.102.598c0 .215.034.413.102.597a.987.987 0 00.315.444.844.844 0 00.542.169zm3.505.442c-.3 0-.559-.07-.776-.212a1.392 1.392 0 01-.5-.586 1.987 1.987 0 01-.175-.854c0-.325.059-.612.179-.861.121-.25.289-.446.505-.586.217-.142.47-.213.759-.213.225 0 .428.042.609.125.181.084.329.2.444.351.116.15.188.325.215.525h-.492a.763.763 0 00-.25-.388c-.128-.114-.301-.171-.518-.171-.191 0-.36.05-.504.15a.97.97 0 00-.336.42c-.079.179-.119.39-.119.632 0 .247.039.463.117.646a.99.99 0 00.333.428.87.87 0 00.509.152.876.876 0 00.349-.067.724.724 0 00.265-.191.749.749 0 00.154-.301h.492c-.027.189-.096.36-.206.511-.109.15-.253.27-.432.359a1.386 1.386 0 01-.622.131zm3.323 0c-.308 0-.575-.068-.799-.204a1.379 1.379 0 01-.515-.576 1.968 1.968 0 01-.179-.863 2 2 0 01.179-.868c.121-.252.289-.448.505-.588.217-.142.47-.213.759-.213.167 0 .332.028.495.083.162.056.311.146.444.272.134.123.24.287.319.492.079.204.119.456.119.755v.209h-2.47v-.426h1.969c0-.181-.036-.342-.108-.484a.812.812 0 00-.305-.336.851.851 0 00-.463-.123.888.888 0 00-.509.146.952.952 0 00-.327.376 1.092 1.092 0 00-.115.496v.284c0 .242.042.447.125.615a.908.908 0 00.353.382c.15.086.325.129.523.129.13 0 .247-.018.351-.054a.745.745 0 00.273-.167.741.741 0 00.177-.279l.476.133c-.05.161-.134.303-.252.426a1.241 1.241 0 01-.438.283c-.174.067-.37.1-.587.1zm4.345-2.553l-.442.125a.832.832 0 00-.123-.214.599.599 0 00-.217-.176.785.785 0 00-.352-.069.843.843 0 00-.49.136c-.13.089-.194.202-.194.34 0 .122.044.219.133.29.089.071.228.13.417.177l.476.117c.286.07.5.176.64.319a.746.746 0 01.211.549.81.81 0 01-.159.492c-.104.145-.25.259-.438.342a1.588 1.588 0 01-.655.125c-.326 0-.597-.07-.811-.212a.944.944 0 01-.407-.622l.467-.117a.649.649 0 00.253.388c.125.086.288.13.49.13.229 0 .412-.049.546-.146.137-.099.205-.217.205-.355a.375.375 0 00-.117-.28.752.752 0 00-.359-.171l-.534-.125c-.293-.069-.509-.177-.646-.323a.782.782 0 01-.205-.553c0-.181.051-.341.152-.48.103-.139.243-.248.42-.327.178-.079.379-.119.605-.119.317 0 .566.069.746.209.183.139.312.322.388.55zm3.069 0l-.442.125a.832.832 0 00-.123-.214.599.599 0 00-.217-.176.785.785 0 00-.352-.069.843.843 0 00-.49.136c-.13.089-.194.202-.194.34 0 .122.044.219.133.29.089.071.228.13.417.177l.476.117c.286.07.5.176.64.319a.746.746 0 01.211.549.81.81 0 01-.159.492c-.104.145-.25.259-.438.342a1.588 1.588 0 01-.655.125c-.326 0-.597-.07-.811-.212a.944.944 0 01-.407-.622l.467-.117a.649.649 0 00.253.388c.125.086.288.13.49.13.229 0 .412-.049.546-.146.137-.099.205-.217.205-.355a.375.375 0 00-.117-.28.752.752 0 00-.359-.171l-.534-.125c-.293-.069-.509-.177-.646-.323a.782.782 0 01-.205-.553c0-.181.051-.341.152-.48.103-.139.243-.248.42-.327.178-.079.379-.119.605-.119.317 0 .566.069.746.209.183.139.312.322.388.55zm2.769 3.688a1.07 1.07 0 01-.359-.058l.125-.434c.12.031.226.042.318.033a.379.379 0 00.244-.123.989.989 0 00.198-.352l.092-.251-1.185-3.22h.534l.884 2.553h.034l.884-2.553h.534l-1.36 3.671a1.406 1.406 0 01-.227.411.862.862 0 01-.315.244.973.973 0 01-.401.079zm4.14-1.135c-.29 0-.543-.068-.762-.206a1.407 1.407 0 01-.509-.578 1.954 1.954 0 01-.181-.868c0-.333.06-.625.181-.874.123-.249.292-.442.509-.58.219-.137.472-.206.762-.206.289 0 .542.069.759.206.218.138.388.331.509.58.122.249.184.541.184.874 0 .331-.062.621-.184.868-.121.248-.291.44-.509.578-.217.138-.47.206-.759.206zm0-.442c.219 0 .4-.056.542-.169a.987.987 0 00.315-.444c.068-.184.102-.382.102-.597 0-.214-.034-.413-.102-.598a1.008 1.008 0 00-.315-.449.84.84 0 00-.542-.171.84.84 0 00-.543.171 1.024 1.024 0 00-.315.449 1.719 1.719 0 00-.102.598c0 .215.034.413.102.597.069.184.174.332.315.444a.845.845 0 00.543.169zm4.222-.934v-1.894h.493v3.204h-.493v-.543h-.033a1.046 1.046 0 01-.351.415 1.006 1.006 0 01-.6.169c-.201 0-.379-.043-.534-.131a.92.92 0 01-.367-.401 1.517 1.517 0 01-.134-.677v-2.036h.492v2.002c0 .234.066.42.196.559a.669.669 0 00.505.209.835.835 0 00.374-.094.817.817 0 00.452-.782zm1.394 1.31v-3.204h.476v.484h.033a.767.767 0 01.317-.386.933.933 0 01.518-.148 3.471 3.471 0 01.258.008v.501a1 1 0 00-.114-.019 1.112 1.112 0 00-.186-.015.873.873 0 00-.417.098.716.716 0 00-.392.653v2.028h-.493zm5.14.066c-.29 0-.543-.068-.762-.206a1.407 1.407 0 01-.509-.578 1.954 1.954 0 01-.181-.868c0-.333.06-.625.181-.874.123-.249.292-.442.509-.58.219-.137.472-.206.762-.206.289 0 .542.069.759.206.218.138.388.331.509.58.122.249.183.541.183.874 0 .331-.061.621-.183.868-.121.248-.291.44-.509.578-.217.138-.47.206-.759.206zm0-.442c.219 0 .4-.056.542-.169a.987.987 0 00.315-.444c.068-.184.102-.382.102-.597 0-.214-.034-.413-.102-.598a1.008 1.008 0 00-.315-.449.84.84 0 00-.542-.171.84.84 0 00-.543.171 1.008 1.008 0 00-.315.449 1.719 1.719 0 00-.102.598c0 .215.034.413.102.597a.987.987 0 00.315.444.845.845 0 00.543.169zm2.203.376v-3.204h.476v.484h.033a.762.762 0 01.317-.386.93.93 0 01.517-.148 3.52 3.52 0 01.259.008v.501a1.034 1.034 0 00-.115-.019 1.092 1.092 0 00-.185-.015.88.88 0 00-.418.098.724.724 0 00-.392.653v2.028h-.492zm3.298.066c-.267 0-.503-.067-.707-.202a1.356 1.356 0 01-.48-.576 2.072 2.072 0 01-.173-.882c0-.337.057-.629.173-.876.115-.248.276-.439.482-.574a1.27 1.27 0 01.713-.202c.209 0 .374.035.495.104a.847.847 0 01.279.234c.065.086.116.157.152.213h.042v-1.577h.492v4.272h-.475v-.493h-.059a2.868 2.868 0 01-.154.222.917.917 0 01-.286.235 1.026 1.026 0 01-.494.102zm.067-.442a.805.805 0 00.5-.154.96.96 0 00.311-.432c.071-.185.106-.398.106-.64 0-.24-.034-.449-.104-.628a.911.911 0 00-.309-.422.822.822 0 00-.504-.152.83.83 0 00-.522.161.955.955 0 00-.311.432c-.068.18-.102.383-.102.609 0 .228.035.435.104.621.071.185.176.333.313.443a.82.82 0 00.518.162zm3.715.442a1.51 1.51 0 01-.799-.204 1.372 1.372 0 01-.515-.576 1.954 1.954 0 01-.18-.863c0-.328.06-.618.18-.868.121-.252.289-.448.504-.588.217-.142.47-.213.76-.213.167 0 .331.028.494.083.163.056.311.146.444.272.134.123.24.287.32.492.079.204.118.456.118.755v.209h-2.469v-.426h1.969c0-.181-.036-.342-.109-.484a.817.817 0 00-.767-.459.886.886 0 00-.509.146.962.962 0 00-.328.376 1.105 1.105 0 00-.115.496v.284c0 .242.042.447.126.615a.9.9 0 00.352.382c.15.086.325.129.524.129.129 0 .246-.018.35-.054a.745.745 0 00.273-.167.756.756 0 00.178-.279l.475.133c-.05.161-.134.303-.252.426a1.223 1.223 0 01-.438.283c-.174.067-.369.1-.586.1zm2.075-.066v-3.204h.476v.484h.033a.767.767 0 01.317-.386.933.933 0 01.518-.148 3.471 3.471 0 01.258.008v.501a1 1 0 00-.114-.019 1.112 1.112 0 00-.186-.015.873.873 0 00-.417.098.716.716 0 00-.392.653v2.028h-.493zm2.553-.584l-.033.225c-.024.158-.06.328-.109.509a8.859 8.859 0 01-.148.511c-.051.16-.094.287-.127.382h-.376l.071-.353a13.319 13.319 0 00.163-1.041l.025-.233h.534zm4.834-1.903l-.442.125a.808.808 0 00-.124-.214.595.595 0 00-.216-.176.79.79 0 00-.353-.069.843.843 0 00-.49.136c-.13.089-.194.202-.194.34 0 .122.044.219.133.29.089.071.228.13.417.177l.476.117c.287.07.5.176.64.319a.746.746 0 01.211.549.816.816 0 01-.158.492 1.054 1.054 0 01-.438.342 1.595 1.595 0 01-.655.125c-.327 0-.598-.07-.812-.212a.944.944 0 01-.407-.622l.468-.117a.643.643 0 00.252.388.85.85 0 00.49.13c.23 0 .412-.049.547-.146.136-.099.204-.217.204-.355a.375.375 0 00-.117-.28.753.753 0 00-.358-.171l-.534-.125c-.294-.069-.509-.177-.647-.323a.786.786 0 01-.205-.553.79.79 0 01.153-.48 1.03 1.03 0 01.419-.327c.178-.079.38-.119.605-.119.317 0 .566.069.747.209.182.139.311.322.388.55zm2.818 1.177v-1.894h.493v3.204h-.493v-.543h-.033a1.051 1.051 0 01-.35.415 1.011 1.011 0 01-.601.169c-.2 0-.378-.043-.534-.131a.92.92 0 01-.367-.401 1.517 1.517 0 01-.134-.677v-2.036h.492v2.002c0 .234.066.42.197.559.132.139.3.209.504.209a.835.835 0 00.374-.094.817.817 0 00.452-.782zm1.394 2.511v-4.405h.476v.509h.058c.037-.056.087-.127.151-.213a.868.868 0 01.279-.234c.122-.069.288-.104.497-.104.269 0 .507.067.713.202.206.135.366.326.482.574.115.247.173.539.173.876 0 .339-.058.633-.173.882a1.37 1.37 0 01-.48.576c-.204.135-.44.202-.707.202-.206 0-.371-.034-.494-.102a.917.917 0 01-.286-.235 3.249 3.249 0 01-.155-.222h-.041v1.694h-.493zm.484-2.803c0 .242.036.455.107.64a.96.96 0 00.311.432.805.805 0 00.5.154.807.807 0 00.515-.162.994.994 0 00.313-.443 1.73 1.73 0 00.107-.621 1.67 1.67 0 00-.105-.609.932.932 0 00-.31-.432.823.823 0 00-.52-.161c-.2 0-.368.051-.505.152a.916.916 0 00-.308.422c-.07.179-.105.388-.105.628zm3.096 2.803v-4.405h.476v.509h.058c.036-.056.086-.127.15-.213a.872.872 0 01.28-.234c.122-.069.288-.104.496-.104.27 0 .508.067.714.202.205.135.366.326.481.574.116.247.174.539.174.876 0 .339-.058.633-.174.882-.115.248-.275.44-.479.576a1.258 1.258 0 01-.708.202c-.205 0-.37-.034-.494-.102a.917.917 0 01-.286-.235 3.181 3.181 0 01-.154-.222h-.042v1.694h-.492zm.484-2.803c0 .242.035.455.106.64a.967.967 0 00.311.432.805.805 0 00.501.154.809.809 0 00.515-.162c.139-.11.243-.258.313-.443a1.73 1.73 0 00.106-.621 1.69 1.69 0 00-.104-.609.934.934 0 00-.311-.432.822.822 0 00-.519-.161.823.823 0 00-.505.152.925.925 0 00-.309.422 1.74 1.74 0 00-.104.628zm4.397 1.668c-.289 0-.543-.068-.761-.206a1.4 1.4 0 01-.509-.578 1.954 1.954 0 01-.182-.868c0-.333.061-.625.182-.874a1.4 1.4 0 01.509-.58c.218-.137.472-.206.761-.206.289 0 .542.069.759.206.219.138.388.331.509.58.123.249.184.541.184.874 0 .331-.061.621-.184.868-.121.248-.29.44-.509.578-.217.138-.47.206-.759.206zm0-.442a.84.84 0 00.542-.169.987.987 0 00.315-.444c.069-.184.103-.382.103-.597 0-.214-.034-.413-.103-.598a1.008 1.008 0 00-.315-.449.835.835 0 00-.542-.171c-.22 0-.4.057-.542.171a1.008 1.008 0 00-.315.449 1.719 1.719 0 00-.102.598c0 .215.034.413.102.597a.987.987 0 00.315.444.842.842 0 00.542.169zm2.203.376v-3.204h.476v.484h.033a.773.773 0 01.317-.386.933.933 0 01.518-.148 3.471 3.471 0 01.258.008v.501a.958.958 0 00-.114-.019 1.112 1.112 0 00-.186-.015.873.873 0 00-.417.098.724.724 0 00-.392.653v2.028h-.493zm3.78-3.204v.417h-1.66v-.417h1.66zm-1.176-.768h.492v3.054c0 .139.02.243.061.313a.306.306 0 00.158.137.616.616 0 00.207.034.807.807 0 00.133-.009l.084-.016.1.442a1.014 1.014 0 01-.367.058.983.983 0 01-.409-.089.815.815 0 01-.33-.274.784.784 0 01-.129-.463v-3.187zm3.886 5.173a1.07 1.07 0 01-.359-.058l.125-.434c.12.031.226.042.317.033a.374.374 0 00.244-.123.973.973 0 00.199-.352l.091-.251-1.184-3.22h.534l.884 2.553h.033l.885-2.553h.534l-1.36 3.671a1.385 1.385 0 01-.228.411.846.846 0 01-.315.244.965.965 0 01-.4.079zm4.14-1.135c-.29 0-.543-.068-.762-.206a1.407 1.407 0 01-.509-.578 1.954 1.954 0 01-.181-.868c0-.333.06-.625.181-.874.123-.249.292-.442.509-.58.219-.137.472-.206.762-.206.289 0 .542.069.759.206.218.138.388.331.509.58.122.249.183.541.183.874 0 .331-.061.621-.183.868-.121.248-.291.44-.509.578-.217.138-.47.206-.759.206zm0-.442c.219 0 .4-.056.542-.169a.987.987 0 00.315-.444c.068-.184.102-.382.102-.597 0-.214-.034-.413-.102-.598a1.008 1.008 0 00-.315-.449.84.84 0 00-.542-.171.84.84 0 00-.543.171 1.008 1.008 0 00-.315.449 1.719 1.719 0 00-.102.598c0 .215.034.413.102.597a.987.987 0 00.315.444.845.845 0 00.543.169zm4.222-.934v-1.894h.492v3.204h-.492v-.543h-.033a1.046 1.046 0 01-.351.415 1.006 1.006 0 01-.6.169c-.201 0-.379-.043-.534-.131a.921.921 0 01-.368-.401c-.089-.179-.133-.405-.133-.677v-2.036h.492v2.002c0 .234.066.42.196.559a.667.667 0 00.505.209.83.83 0 00.373-.094.827.827 0 00.322-.288.867.867 0 00.131-.494zm1.394 1.31v-3.204h.476v.484h.033a.762.762 0 01.317-.386.932.932 0 01.517-.148 3.493 3.493 0 01.259.008v.501a1.034 1.034 0 00-.115-.019 1.092 1.092 0 00-.185-.015.873.873 0 00-.417.098.716.716 0 00-.393.653v2.028h-.492zm-182.997 9.066a1.51 1.51 0 01-.8-.204 1.376 1.376 0 01-.515-.576 1.96 1.96 0 01-.179-.863c0-.328.06-.618.18-.868a1.41 1.41 0 01.504-.588c.217-.142.47-.213.76-.213.166 0 .331.028.494.083.163.056.31.146.444.272.134.123.24.287.32.492.079.204.118.456.118.755v.209h-2.47v-.426h1.97a1.05 1.05 0 00-.109-.484.817.817 0 00-.768-.459.886.886 0 00-.509.146.957.957 0 00-.327.376 1.099 1.099 0 00-.115.496v.284c0 .242.042.447.125.615a.905.905 0 00.353.382c.15.086.325.129.524.129.129 0 .246-.018.35-.054a.753.753 0 00.273-.167.757.757 0 00.178-.279l.475.133c-.05.161-.134.303-.252.426a1.227 1.227 0 01-.438.283c-.174.067-.37.1-.586.1zm2.356-3.27l.768 1.31.767-1.31h.568l-1.035 1.602 1.035 1.602h-.568l-.767-1.244-.768 1.244h-.567l1.018-1.602-1.018-1.602h.567zm2.805 4.405v-4.405h.476v.509h.058c.037-.056.087-.127.15-.213a.873.873 0 01.28-.234c.123-.069.288-.104.497-.104.27 0 .507.067.713.202.206.135.366.326.482.574.115.247.173.539.173.876 0 .339-.058.633-.173.882a1.37 1.37 0 01-.48.576c-.204.135-.44.202-.707.202-.206 0-.37-.034-.495-.102a.916.916 0 01-.285-.235 3.004 3.004 0 01-.155-.222h-.041v1.694h-.493zm.484-2.803c0 .242.036.455.107.64.07.184.174.328.31.432a.806.806 0 00.501.154.81.81 0 00.515-.162.999.999 0 00.313-.443 1.73 1.73 0 00.107-.621 1.68 1.68 0 00-.105-.609.934.934 0 00-.31-.432.821.821 0 00-.52-.161c-.2 0-.368.051-.505.152a.919.919 0 00-.308.422c-.07.179-.105.388-.105.628zm4.44 1.668a1.51 1.51 0 01-.8-.204 1.376 1.376 0 01-.515-.576 1.96 1.96 0 01-.18-.863c0-.328.06-.618.18-.868a1.41 1.41 0 01.505-.588c.217-.142.47-.213.76-.213.166 0 .33.028.494.083.162.056.31.146.444.272.133.123.24.287.32.492.078.204.118.456.118.755v.209h-2.47v-.426h1.97a1.05 1.05 0 00-.11-.484.817.817 0 00-.767-.459.886.886 0 00-.509.146.958.958 0 00-.327.376 1.099 1.099 0 00-.115.496v.284c0 .242.042.447.125.615a.905.905 0 00.353.382c.15.086.324.129.523.129.13 0 .246-.018.35-.054a.753.753 0 00.274-.167.757.757 0 00.177-.279l.476.133c-.05.161-.134.303-.253.426a1.226 1.226 0 01-.438.283c-.173.067-.369.1-.586.1zm2.075-.066v-3.204h.475v.484h.034a.765.765 0 01.317-.386.93.93 0 01.517-.148 3.5 3.5 0 01.259.008v.501a1.023 1.023 0 00-.115-.019 1.1 1.1 0 00-.186-.015.876.876 0 00-.417.098.72.72 0 00-.392.653v2.028h-.492zm2.185 0v-3.204h.493v3.204h-.493zm.25-3.738a.351.351 0 01-.248-.098.316.316 0 01-.102-.236c0-.092.034-.17.102-.236a.351.351 0 01.249-.098c.096 0 .178.033.246.098.07.066.104.144.104.236s-.035.17-.104.236a.344.344 0 01-.246.098zm2.488 3.804a1.51 1.51 0 01-.8-.204 1.376 1.376 0 01-.514-.576 1.96 1.96 0 01-.18-.863c0-.328.06-.618.18-.868a1.41 1.41 0 01.504-.588c.217-.142.47-.213.76-.213.167 0 .331.028.494.083.163.056.31.146.444.272.134.123.24.287.32.492.079.204.118.456.118.755v.209h-2.47v-.426h1.97a1.05 1.05 0 00-.109-.484.816.816 0 00-.767-.459.886.886 0 00-.51.146.958.958 0 00-.327.376 1.099 1.099 0 00-.114.496v.284c0 .242.041.447.125.615a.906.906 0 00.352.382c.15.086.325.129.524.129.13 0 .246-.018.35-.054a.753.753 0 00.274-.167.76.76 0 00.177-.279l.475.133c-.05.161-.134.303-.252.426a1.227 1.227 0 01-.438.283c-.174.067-.37.1-.586.1zm2.568-1.994v1.928h-.493v-3.204h.476v.5h.042a.92.92 0 01.342-.392c.153-.1.35-.15.592-.15.217 0 .407.044.57.133a.912.912 0 01.38.401c.09.178.135.403.135.676v2.036h-.492v-2.003c0-.252-.066-.448-.197-.588-.13-.142-.31-.213-.538-.213a.86.86 0 00-.421.102.73.73 0 00-.29.299.98.98 0 00-.106.475zm4.245 1.994c-.3 0-.559-.07-.776-.212a1.393 1.393 0 01-.5-.586 1.988 1.988 0 01-.176-.854c0-.325.06-.612.18-.861.12-.25.289-.446.504-.586.217-.142.47-.213.76-.213.225 0 .428.042.609.125.18.084.329.2.444.351.116.15.187.325.215.525h-.492a.765.765 0 00-.25-.388c-.129-.114-.301-.171-.518-.171-.192 0-.36.05-.505.15a.98.98 0 00-.336.42c-.079.179-.118.39-.118.632 0 .247.038.463.116.646.08.184.19.326.334.428a.867.867 0 00.51.152.87.87 0 00.347-.067.717.717 0 00.42-.492h.492a1.138 1.138 0 01-.638.87 1.386 1.386 0 01-.622.131zm3.323 0a1.51 1.51 0 01-.799-.204 1.376 1.376 0 01-.515-.576 1.96 1.96 0 01-.18-.863c0-.328.06-.618.18-.868a1.41 1.41 0 01.505-.588c.217-.142.47-.213.759-.213.167 0 .332.028.494.083.163.056.311.146.445.272.133.123.24.287.319.492.08.204.119.456.119.755v.209h-2.47v-.426h1.97a1.05 1.05 0 00-.11-.484.816.816 0 00-.767-.459.886.886 0 00-.509.146.958.958 0 00-.328.376 1.099 1.099 0 00-.114.496v.284c0 .242.041.447.125.615a.906.906 0 00.352.382c.15.086.325.129.524.129.13 0 .246-.018.35-.054a.753.753 0 00.274-.167.758.758 0 00.177-.279l.476.133c-.05.161-.135.303-.253.426a1.227 1.227 0 01-.438.283c-.174.067-.369.1-.586.1zm5.121-3.27v.417h-1.66v-.417h1.66zm-1.176-.768h.492v3.054c0 .139.02.243.06.313a.31.31 0 00.159.137.617.617 0 00.207.034.81.81 0 00.133-.009l.083-.016.1.442a1.094 1.094 0 01-.776-.031.81.81 0 01-.329-.274.783.783 0 01-.13-.463v-3.187zm2.478 2.044v1.928h-.492v-4.272h.492v1.568h.042a.906.906 0 01.337-.394c.152-.099.354-.148.605-.148.219 0 .41.044.574.131a.886.886 0 01.382.399c.091.178.137.404.137.68v2.036h-.492v-2.003c0-.254-.066-.451-.198-.59-.13-.141-.312-.211-.544-.211a.91.91 0 00-.434.102.746.746 0 00-.3.299.965.965 0 00-.11.475zm2.978 1.928v-3.204h.476v.484h.033a.765.765 0 01.317-.386.931.931 0 01.517-.148 3.493 3.493 0 01.259.008v.501a1.02 1.02 0 00-.115-.019 1.1 1.1 0 00-.185-.015.876.876 0 00-.417.098.72.72 0 00-.392.653v2.028h-.493zm3.39.066c-.29 0-.543-.068-.762-.206a1.403 1.403 0 01-.509-.578 1.954 1.954 0 01-.181-.868c0-.333.06-.625.181-.874.123-.249.293-.442.51-.58.218-.137.471-.206.76-.206.29 0 .543.069.76.206.218.138.388.331.51.58.121.249.183.541.183.874 0 .331-.062.621-.184.868-.12.248-.29.44-.509.578-.217.138-.47.206-.76.206zm0-.442c.22 0 .4-.056.542-.169a.989.989 0 00.315-.444 1.7 1.7 0 00.102-.597c0-.214-.034-.413-.102-.598a1.01 1.01 0 00-.315-.449.838.838 0 00-.542-.171c-.22 0-.4.057-.543.171a1.011 1.011 0 00-.315.449 1.716 1.716 0 00-.102.598c0 .215.034.413.102.597a.99.99 0 00.315.444.843.843 0 00.543.169zm4.222-.934v-1.894h.493v3.204h-.493v-.543h-.033a1.048 1.048 0 01-.35.415 1.01 1.01 0 01-.601.169c-.2 0-.379-.043-.534-.131a.921.921 0 01-.367-.401c-.09-.179-.134-.405-.134-.677v-2.036h.492v2.002c0 .234.066.42.197.559.132.139.3.209.504.209a.833.833 0 00.374-.094.82.82 0 00.32-.288.862.862 0 00.132-.494zm2.688 2.578a1.83 1.83 0 01-.614-.092 1.3 1.3 0 01-.696-.551l.392-.275c.044.059.1.125.169.2a.856.856 0 00.28.199c.119.057.275.085.469.085.258 0 .472-.062.64-.188.168-.125.252-.321.252-.588v-.651h-.041a2.518 2.518 0 01-.155.217.878.878 0 01-.283.228 1.067 1.067 0 01-.497.098c-.258 0-.49-.062-.697-.184a1.283 1.283 0 01-.486-.534c-.118-.234-.177-.517-.177-.851 0-.328.058-.614.173-.857a1.27 1.27 0 011.195-.77c.21 0 .375.035.497.104a.864.864 0 01.284.234c.066.086.118.157.154.213h.05v-.509h.476v3.295c0 .276-.063.5-.188.672a1.07 1.07 0 01-.5.382 1.89 1.89 0 01-.697.123zm-.017-1.761a.888.888 0 00.5-.135.85.85 0 00.311-.39c.071-.17.107-.373.107-.609 0-.231-.035-.435-.105-.612a.919.919 0 00-.308-.415.83.83 0 00-.505-.15.835.835 0 00-.522.159.96.96 0 00-.31.425 1.649 1.649 0 00-.103.593c0 .222.035.419.105.59a.89.89 0 00.313.4.889.889 0 00.517.144zm2.795-1.435v1.928h-.492v-4.272h.492v1.568h.042a.906.906 0 01.338-.394c.151-.099.353-.148.605-.148.218 0 .41.044.573.131a.886.886 0 01.382.399c.092.178.138.404.138.68v2.036h-.492v-2.003c0-.254-.067-.451-.199-.59-.13-.141-.312-.211-.544-.211a.91.91 0 00-.434.102.746.746 0 00-.3.299.966.966 0 00-.109.475zm4.28 1.994a1.39 1.39 0 01-.761-.206 1.402 1.402 0 01-.51-.578 1.954 1.954 0 01-.18-.868c0-.333.06-.625.18-.874.123-.249.293-.442.51-.58.218-.137.472-.206.761-.206.29 0 .542.069.76.206.218.138.387.331.508.58.123.249.184.541.184.874 0 .331-.061.621-.184.868-.12.248-.29.44-.509.578-.217.138-.47.206-.759.206zm0-.442c.22 0 .4-.056.542-.169a.99.99 0 00.315-.444c.069-.184.103-.382.103-.597 0-.214-.034-.413-.103-.598a1.011 1.011 0 00-.315-.449.838.838 0 00-.542-.171c-.22 0-.4.057-.542.171a1.01 1.01 0 00-.315.449 1.716 1.716 0 00-.103.598c0 .215.035.413.103.597a.989.989 0 00.315.444.843.843 0 00.542.169zm4.223-.934v-1.894h.492v3.204h-.492v-.543h-.034a1.051 1.051 0 01-.35.415 1.011 1.011 0 01-.601.169c-.2 0-.378-.043-.534-.131a.92.92 0 01-.367-.401c-.09-.179-.134-.405-.134-.677v-2.036h.493v2.002c0 .234.065.42.196.559.132.139.3.209.505.209a.834.834 0 00.373-.094.817.817 0 00.321-.288.859.859 0 00.132-.494zm2.787-1.894v.417h-1.66v-.417h1.66zm-1.177-.768h.493v3.054c0 .139.02.243.06.313a.312.312 0 00.159.137.614.614 0 00.206.034.812.812 0 00.134-.009l.083-.016.1.442a.994.994 0 01-.367.058.99.99 0 01-.409-.089.806.806 0 01-.329-.274.784.784 0 01-.13-.463v-3.187zm4.963.768v.417h-1.66v-.417h1.66zm-1.176-.768h.492v3.054c0 .139.02.243.06.313a.312.312 0 00.159.137.614.614 0 00.206.034.812.812 0 00.134-.009l.083-.016.1.442a.994.994 0 01-.367.058.99.99 0 01-.409-.089.806.806 0 01-.329-.274.784.784 0 01-.129-.463v-3.187zm2.478 2.044v1.928h-.493v-4.272h.493v1.568h.041a.913.913 0 01.338-.394c.152-.099.354-.148.605-.148.219 0 .41.044.574.131a.89.89 0 01.382.399c.091.178.137.404.137.68v2.036h-.492v-2.003c0-.254-.066-.451-.198-.59-.131-.141-.312-.211-.545-.211a.905.905 0 00-.433.102.747.747 0 00-.301.299.97.97 0 00-.108.475zm2.978 1.928v-3.204h.492v3.204h-.492zm.25-3.738a.352.352 0 01-.248-.098.317.317 0 01-.102-.236c0-.092.034-.17.102-.236a.352.352 0 01.248-.098c.096 0 .178.033.246.098.07.066.105.144.105.236s-.035.17-.105.236a.344.344 0 01-.246.098zm3.413 1.251l-.442.125a.832.832 0 00-.123-.214.599.599 0 00-.217-.176.785.785 0 00-.352-.069.848.848 0 00-.491.136c-.129.089-.194.202-.194.34 0 .122.045.219.134.29.089.071.228.13.417.177l.476.117c.286.07.5.176.64.319a.746.746 0 01.211.549.81.81 0 01-.159.492c-.104.145-.25.259-.438.342a1.588 1.588 0 01-.655.125c-.327 0-.597-.07-.811-.212a.944.944 0 01-.407-.622l.467-.117a.649.649 0 00.253.388c.125.086.288.13.49.13.229 0 .412-.049.546-.146.137-.099.205-.217.205-.355a.375.375 0 00-.117-.28.752.752 0 00-.359-.171l-.534-.125c-.293-.069-.509-.177-.646-.323a.782.782 0 01-.205-.553c0-.181.051-.341.152-.48.103-.139.243-.248.42-.327.178-.079.379-.119.605-.119.317 0 .566.069.746.209.183.139.312.322.388.55zm3.178 2.487l-.976-3.204h.517l.693 2.453h.033l.684-2.453h.526l.676 2.444h.033l.693-2.444h.517l-.976 3.204h-.484l-.701-2.462h-.05l-.701 2.462h-.484zm5.281.066a1.51 1.51 0 01-.799-.204 1.379 1.379 0 01-.515-.576 1.954 1.954 0 01-.179-.863c0-.328.059-.618.179-.868.121-.252.289-.448.505-.588.217-.142.47-.213.759-.213.167 0 .332.028.494.083.163.056.311.146.445.272.133.123.24.287.319.492.079.204.119.456.119.755v.209h-2.47v-.426h1.969c0-.181-.036-.342-.108-.484a.819.819 0 00-.768-.459.886.886 0 00-.509.146.952.952 0 00-.327.376 1.092 1.092 0 00-.115.496v.284c0 .242.042.447.125.615a.902.902 0 00.353.382c.15.086.324.129.523.129.129 0 .246-.018.351-.054a.762.762 0 00.273-.167.767.767 0 00.177-.279l.476.133c-.05.161-.134.303-.253.426a1.223 1.223 0 01-.438.283c-.174.067-.369.1-.586.1zm2.142-.066v-4.272h.493v1.577h.041c.037-.056.087-.127.151-.213a.868.868 0 01.279-.234c.123-.069.288-.104.497-.104.269 0 .507.067.713.202.206.135.366.326.482.574.115.247.173.539.173.876 0 .339-.058.633-.173.882-.116.248-.275.44-.48.576-.204.135-.44.202-.707.202-.206 0-.371-.034-.494-.102a.917.917 0 01-.286-.235 3.249 3.249 0 01-.155-.222h-.058v.493h-.476zm.484-1.602c0 .242.036.455.107.64a.96.96 0 00.311.432.805.805 0 00.5.154.807.807 0 00.515-.162.994.994 0 00.313-.443 1.73 1.73 0 00.107-.621 1.67 1.67 0 00-.105-.609.932.932 0 00-.31-.432.823.823 0 00-.52-.161c-.2 0-.368.051-.505.152a.916.916 0 00-.308.422c-.07.179-.105.388-.105.628zm5.368-.885l-.443.125a.777.777 0 00-.123-.214.599.599 0 00-.217-.176.782.782 0 00-.352-.069.843.843 0 00-.49.136c-.13.089-.194.202-.194.34 0 .122.044.219.133.29.089.071.228.13.417.177l.476.117c.286.07.5.176.64.319a.746.746 0 01.211.549.81.81 0 01-.159.492c-.104.145-.25.259-.438.342a1.588 1.588 0 01-.655.125c-.326 0-.597-.07-.811-.212a.944.944 0 01-.407-.622l.467-.117a.649.649 0 00.253.388c.125.086.288.13.49.13.23 0 .412-.049.547-.146.136-.099.204-.217.204-.355a.375.375 0 00-.117-.28.752.752 0 00-.359-.171l-.534-.125c-.293-.069-.509-.177-.646-.323a.782.782 0 01-.205-.553.79.79 0 01.153-.48 1.03 1.03 0 01.419-.327c.178-.079.38-.119.605-.119.317 0 .566.069.747.209.182.139.311.322.388.55zm.799 2.487v-3.204h.492v3.204h-.492zm.25-3.738a.352.352 0 01-.248-.098.317.317 0 01-.102-.236c0-.092.034-.17.102-.236a.352.352 0 01.248-.098c.096 0 .178.033.247.098a.315.315 0 01.104.236c0 .092-.035.17-.104.236a.348.348 0 01-.247.098zm2.537.534v.417h-1.66v-.417h1.66zm-1.176-.768h.492v3.054c0 .139.02.243.061.313a.306.306 0 00.158.137.62.62 0 00.207.034.799.799 0 00.133-.009l.084-.016.1.442a1.014 1.014 0 01-.367.058.986.986 0 01-.409-.089.815.815 0 01-.33-.274.784.784 0 01-.129-.463v-3.187zm3.226 4.038a1.51 1.51 0 01-.799-.204 1.372 1.372 0 01-.515-.576 1.954 1.954 0 01-.18-.863c0-.328.06-.618.18-.868.121-.252.289-.448.505-.588.217-.142.47-.213.759-.213.167 0 .332.028.494.083.163.056.311.146.445.272a1.3 1.3 0 01.319.492c.079.204.119.456.119.755v.209h-2.47v-.426h1.969c0-.181-.036-.342-.109-.484a.81.81 0 00-.304-.336.854.854 0 00-.463-.123.886.886 0 00-.509.146.962.962 0 00-.328.376 1.105 1.105 0 00-.114.496v.284c0 .242.041.447.125.615a.906.906 0 00.352.382c.151.086.325.129.524.129.129 0 .246-.018.35-.054a.757.757 0 00.274-.167.767.767 0 00.177-.279l.476.133a1.077 1.077 0 01-.253.426 1.223 1.223 0 01-.438.283c-.174.067-.369.1-.586.1zm2.81-.65l-.034.225a4.365 4.365 0 01-.108.509 9.737 9.737 0 01-.148.511c-.052.16-.094.287-.127.382h-.376l.071-.353c.029-.146.058-.309.088-.49.03-.179.055-.363.075-.551l.025-.233h.534zm3.507.659c-.203 0-.388-.038-.553-.115a.95.95 0 01-.394-.336.94.94 0 01-.146-.534c0-.183.036-.332.108-.446a.763.763 0 01.29-.271c.121-.066.255-.114.401-.146.147-.034.295-.06.444-.08.195-.025.353-.043.474-.056a.734.734 0 00.267-.069c.057-.032.085-.087.085-.167v-.016c0-.206-.056-.366-.169-.48-.111-.114-.28-.171-.507-.171-.235 0-.419.051-.553.154a.913.913 0 00-.281.33l-.467-.167a1.12 1.12 0 01.333-.455c.141-.11.294-.186.459-.229.167-.045.331-.067.492-.067.103 0 .222.012.355.037.135.024.265.073.39.149a.86.86 0 01.315.34c.084.151.125.354.125.609v2.111h-.492v-.434h-.025a.952.952 0 01-.478.425 1.188 1.188 0 01-.473.084zm.075-.442a.978.978 0 00.492-.115.784.784 0 00.409-.678v-.451c-.021.025-.067.048-.138.069-.069.02-.15.037-.242.052-.09.014-.178.027-.265.038l-.206.025a1.945 1.945 0 00-.359.081.613.613 0 00-.267.165.418.418 0 00-.1.296.44.44 0 00.19.388c.128.086.29.13.486.13zm2.784-1.561v1.928h-.492v-3.204h.475v.5h.042a.92.92 0 01.342-.392c.153-.1.351-.15.593-.15.217 0 .406.044.569.133a.907.907 0 01.38.401c.09.178.135.403.135.676v2.036h-.492v-2.003c0-.252-.065-.448-.196-.588-.131-.142-.31-.213-.538-.213a.864.864 0 00-.422.102.725.725 0 00-.289.299.98.98 0 00-.107.475zm4.154 1.994c-.267 0-.503-.067-.707-.202a1.356 1.356 0 01-.48-.576 2.087 2.087 0 01-.173-.882c0-.337.058-.629.173-.876.115-.248.276-.439.482-.574a1.27 1.27 0 01.713-.202c.209 0 .374.035.495.104a.847.847 0 01.279.234c.065.086.116.157.152.213h.042v-1.577h.492v4.272h-.475v-.493h-.059a2.868 2.868 0 01-.154.222.917.917 0 01-.286.235 1.026 1.026 0 01-.494.102zm.067-.442a.805.805 0 00.5-.154.96.96 0 00.311-.432c.071-.185.106-.398.106-.64 0-.24-.034-.449-.104-.628a.911.911 0 00-.309-.422.822.822 0 00-.504-.152.83.83 0 00-.522.161.955.955 0 00-.311.432c-.068.18-.102.383-.102.609 0 .228.035.435.104.621.071.185.176.333.313.443a.82.82 0 00.518.162zm5.45-2.828v.417h-1.727v-.417h1.727zm-1.21 3.204v-3.647c0-.183.044-.336.13-.459a.8.8 0 01.336-.275c.137-.061.283-.092.436-.092a1.204 1.204 0 01.467.084l-.142.425-.104-.031a.651.651 0 00-.171-.019c-.163 0-.281.041-.353.123-.071.082-.106.203-.106.361v3.53h-.493zm3.07.066c-.289 0-.543-.068-.761-.206a1.4 1.4 0 01-.509-.578 1.954 1.954 0 01-.182-.868c0-.333.061-.625.182-.874a1.4 1.4 0 01.509-.58c.218-.137.472-.206.761-.206.289 0 .542.069.759.206.219.138.388.331.509.58.123.249.184.541.184.874 0 .331-.061.621-.184.868-.121.248-.29.44-.509.578-.217.138-.47.206-.759.206zm0-.442c.22 0 .4-.056.542-.169a.987.987 0 00.315-.444c.068-.184.102-.382.102-.597 0-.214-.034-.413-.102-.598a1.008 1.008 0 00-.315-.449.837.837 0 00-.542-.171.835.835 0 00-.542.171 1.008 1.008 0 00-.315.449 1.696 1.696 0 00-.103.598c0 .215.034.413.103.597a.987.987 0 00.315.444.84.84 0 00.542.169zm2.203.376v-3.204h.476v.484h.033a.767.767 0 01.317-.386.933.933 0 01.518-.148 3.471 3.471 0 01.258.008v.501a1 1 0 00-.114-.019 1.112 1.112 0 00-.186-.015.873.873 0 00-.417.098.716.716 0 00-.392.653v2.028h-.493zm5.14.066c-.29 0-.543-.068-.762-.206a1.407 1.407 0 01-.509-.578 1.954 1.954 0 01-.181-.868c0-.333.06-.625.181-.874.123-.249.292-.442.509-.58.219-.137.472-.206.762-.206.289 0 .542.069.759.206.218.138.388.331.509.58.122.249.183.541.183.874 0 .331-.061.621-.183.868-.121.248-.291.44-.509.578-.217.138-.47.206-.759.206zm0-.442c.219 0 .4-.056.542-.169a.987.987 0 00.315-.444c.068-.184.102-.382.102-.597 0-.214-.034-.413-.102-.598a1.008 1.008 0 00-.315-.449.84.84 0 00-.542-.171.84.84 0 00-.543.171 1.008 1.008 0 00-.315.449 1.719 1.719 0 00-.102.598c0 .215.034.413.102.597a.987.987 0 00.315.444.845.845 0 00.543.169zm3.596-2.828v.417h-1.66v-.417h1.66zm-1.176-.768h.492v3.054c0 .139.02.243.061.313a.306.306 0 00.158.137.62.62 0 00.207.034.807.807 0 00.133-.009l.084-.016.1.442a1.014 1.014 0 01-.367.058.986.986 0 01-.409-.089.815.815 0 01-.33-.274.784.784 0 01-.129-.463v-3.187zm2.478 2.044v1.928h-.492v-4.272h.492v1.568h.042a.9.9 0 01.338-.394c.151-.099.353-.148.605-.148.218 0 .409.044.573.131a.885.885 0 01.382.399c.092.178.138.404.138.68v2.036h-.493v-2.003c0-.254-.066-.451-.198-.59-.131-.141-.312-.211-.544-.211a.909.909 0 00-.434.102.747.747 0 00-.301.299.97.97 0 00-.108.475zm4.322 1.994a1.51 1.51 0 01-.799-.204 1.374 1.374 0 01-.516-.576 1.968 1.968 0 01-.179-.863 2 2 0 01.179-.868c.121-.252.29-.448.505-.588.217-.142.47-.213.76-.213.166 0 .331.028.494.083.163.056.311.146.444.272.134.123.24.287.319.492.08.204.119.456.119.755v.209h-2.469v-.426h1.969c0-.181-.036-.342-.109-.484a.817.817 0 00-.767-.459.884.884 0 00-.509.146.962.962 0 00-.328.376 1.105 1.105 0 00-.115.496v.284c0 .242.042.447.126.615a.9.9 0 00.352.382c.15.086.325.129.524.129.129 0 .246-.018.35-.054a.745.745 0 00.273-.167.756.756 0 00.178-.279l.475.133c-.05.161-.134.303-.252.426a1.223 1.223 0 01-.438.283c-.174.067-.369.1-.586.1zm2.075-.066v-3.204h.476v.484h.033a.767.767 0 01.317-.386.933.933 0 01.518-.148 3.471 3.471 0 01.258.008v.501a1 1 0 00-.114-.019 1.112 1.112 0 00-.186-.015.873.873 0 00-.417.098.716.716 0 00-.393.653v2.028h-.492zm3.838 1.201v-4.405h.475v.509h.059c.036-.056.086-.127.15-.213a.872.872 0 01.28-.234c.122-.069.287-.104.496-.104.27 0 .508.067.713.202.206.135.367.326.482.574.116.247.173.539.173.876 0 .339-.057.633-.173.882-.115.248-.275.44-.479.576a1.258 1.258 0 01-.708.202c-.205 0-.37-.034-.494-.102a.917.917 0 01-.286-.235 3.181 3.181 0 01-.154-.222h-.042v1.694h-.492zm.484-2.803c0 .242.035.455.106.64a.967.967 0 00.311.432.805.805 0 00.501.154.81.81 0 00.515-.162c.139-.11.243-.258.313-.443a1.73 1.73 0 00.106-.621 1.69 1.69 0 00-.104-.609.934.934 0 00-.311-.432.822.822 0 00-.519-.161.823.823 0 00-.505.152.925.925 0 00-.309.422 1.74 1.74 0 00-.104.628zm5.115.292v-1.894h.492v3.204h-.492v-.543h-.034a1.051 1.051 0 01-.35.415 1.011 1.011 0 01-.601.169c-.2 0-.378-.043-.534-.131a.92.92 0 01-.367-.401 1.517 1.517 0 01-.134-.677v-2.036h.493v2.002c0 .234.065.42.196.559.132.139.3.209.505.209a.834.834 0 00.373-.094.817.817 0 00.321-.288.859.859 0 00.132-.494zm1.394 1.31v-3.204h.475v.484h.034a.762.762 0 01.317-.386.93.93 0 01.517-.148 3.545 3.545 0 01.259.008v.501a1.034 1.034 0 00-.115-.019 1.095 1.095 0 00-.186-.015.876.876 0 00-.417.098.724.724 0 00-.392.653v2.028h-.492zm2.185 1.201v-4.405h.476v.509h.058c.036-.056.086-.127.15-.213a.883.883 0 01.28-.234c.122-.069.288-.104.496-.104.27 0 .508.067.714.202.206.135.366.326.482.574.115.247.173.539.173.876 0 .339-.058.633-.173.882a1.37 1.37 0 01-.48.576c-.205.135-.44.202-.707.202a1.03 1.03 0 01-.495-.102.912.912 0 01-.285-.235 2.925 2.925 0 01-.155-.222h-.042v1.694h-.492zm.484-2.803c0 .242.036.455.107.64.07.184.174.328.31.432a.81.81 0 00.501.154.807.807 0 00.515-.162.994.994 0 00.313-.443 1.73 1.73 0 00.107-.621 1.67 1.67 0 00-.105-.609.934.934 0 00-.311-.432.818.818 0 00-.519-.161c-.2 0-.369.051-.505.152a.925.925 0 00-.309.422 1.74 1.74 0 00-.104.628zm4.397 1.668c-.289 0-.543-.068-.761-.206a1.4 1.4 0 01-.509-.578 1.954 1.954 0 01-.181-.868c0-.333.06-.625.181-.874a1.4 1.4 0 01.509-.58c.218-.137.472-.206.761-.206.29 0 .543.069.76.206.218.138.388.331.509.58.122.249.183.541.183.874 0 .331-.061.621-.183.868-.121.248-.291.44-.509.578-.217.138-.47.206-.76.206zm0-.442c.22 0 .401-.056.543-.169a.987.987 0 00.315-.444c.068-.184.102-.382.102-.597 0-.214-.034-.413-.102-.598a1.008 1.008 0 00-.315-.449.84.84 0 00-.543-.171.84.84 0 00-.542.171 1.008 1.008 0 00-.315.449 1.719 1.719 0 00-.102.598c0 .215.034.413.102.597a.987.987 0 00.315.444.844.844 0 00.542.169zm4.473-2.111l-.442.125a.832.832 0 00-.123-.214.599.599 0 00-.217-.176.787.787 0 00-.353-.069.845.845 0 00-.49.136c-.129.089-.194.202-.194.34 0 .122.045.219.134.29.089.071.228.13.417.177l.476.117c.286.07.5.176.64.319a.75.75 0 01.211.549.81.81 0 01-.159.492c-.104.145-.25.259-.438.342a1.591 1.591 0 01-.655.125c-.327 0-.597-.07-.811-.212a.94.94 0 01-.407-.622l.467-.117a.649.649 0 00.253.388c.125.086.288.13.49.13.229 0 .411-.049.546-.146.137-.099.205-.217.205-.355a.375.375 0 00-.117-.28.757.757 0 00-.359-.171l-.534-.125c-.293-.069-.509-.177-.647-.323a.786.786 0 01-.204-.553c0-.181.051-.341.152-.48.103-.139.243-.248.42-.327.178-.079.379-.119.604-.119.318 0 .566.069.747.209.182.139.312.322.388.55zm2.143 2.553a1.51 1.51 0 01-.799-.204 1.379 1.379 0 01-.515-.576 1.954 1.954 0 01-.179-.863c0-.328.059-.618.179-.868.121-.252.289-.448.505-.588.217-.142.47-.213.759-.213.167 0 .332.028.494.083.163.056.311.146.445.272.133.123.24.287.319.492.079.204.119.456.119.755v.209h-2.47v-.426h1.969c0-.181-.036-.342-.108-.484a.819.819 0 00-.768-.459.886.886 0 00-.509.146.952.952 0 00-.327.376 1.092 1.092 0 00-.115.496v.284c0 .242.042.447.125.615a.902.902 0 00.353.382c.15.086.324.129.523.129.129 0 .246-.018.351-.054a.762.762 0 00.273-.167.767.767 0 00.177-.279l.476.133c-.05.161-.134.303-.253.426a1.223 1.223 0 01-.438.283c-.174.067-.369.1-.586.1zm4.345-2.553l-.442.125a.832.832 0 00-.123-.214.599.599 0 00-.217-.176.787.787 0 00-.353-.069.845.845 0 00-.49.136c-.129.089-.194.202-.194.34 0 .122.045.219.134.29.089.071.228.13.417.177l.476.117c.286.07.499.176.64.319a.75.75 0 01.211.549.81.81 0 01-.159.492c-.104.145-.25.259-.438.342a1.591 1.591 0 01-.655.125c-.327 0-.597-.07-.811-.212a.94.94 0 01-.407-.622l.467-.117a.652.652 0 00.252.388c.126.086.289.13.491.13.229 0 .411-.049.546-.146.136-.099.205-.217.205-.355a.375.375 0 00-.117-.28.757.757 0 00-.359-.171l-.534-.125c-.293-.069-.509-.177-.647-.323a.786.786 0 01-.204-.553c0-.181.051-.341.152-.48.103-.139.243-.248.419-.327.178-.079.38-.119.605-.119.317 0 .566.069.747.209.182.139.312.322.388.55zm3.662 2.553c-.267 0-.503-.067-.708-.202a1.361 1.361 0 01-.479-.576 2.072 2.072 0 01-.173-.882c0-.337.057-.629.173-.876.115-.248.276-.439.482-.574.205-.135.443-.202.713-.202.209 0 .373.035.494.104a.841.841 0 01.28.234c.065.086.116.157.152.213h.042v-1.577h.492v4.272h-.475v-.493h-.059a2.868 2.868 0 01-.154.222.917.917 0 01-.286.235 1.028 1.028 0 01-.494.102zm.066-.442a.805.805 0 00.501-.154.967.967 0 00.311-.432c.071-.185.106-.398.106-.64 0-.24-.035-.449-.104-.628a.925.925 0 00-.309-.422.823.823 0 00-.505-.152.83.83 0 00-.521.161.955.955 0 00-.311.432c-.068.18-.102.383-.102.609 0 .228.035.435.104.621.071.185.175.333.313.443a.818.818 0 00.517.162zm3.716.442c-.309 0-.576-.068-.799-.204a1.374 1.374 0 01-.516-.576 1.968 1.968 0 01-.179-.863 2 2 0 01.179-.868c.121-.252.29-.448.505-.588.217-.142.47-.213.759-.213.167 0 .332.028.495.083.163.056.311.146.444.272.134.123.24.287.319.492.08.204.119.456.119.755v.209h-2.47v-.426h1.97c0-.181-.037-.342-.109-.484a.817.817 0 00-.768-.459.888.888 0 00-.509.146.96.96 0 00-.327.376 1.092 1.092 0 00-.115.496v.284c0 .242.042.447.125.615a.908.908 0 00.353.382c.15.086.325.129.524.129.129 0 .246-.018.35-.054a.745.745 0 00.273-.167.756.756 0 00.178-.279l.475.133c-.05.161-.134.303-.252.426a1.232 1.232 0 01-.438.283c-.174.067-.37.1-.586.1zm4.345-2.553l-.443.125a.777.777 0 00-.123-.214.599.599 0 00-.217-.176.782.782 0 00-.352-.069.843.843 0 00-.49.136c-.13.089-.194.202-.194.34 0 .122.044.219.133.29.089.071.228.13.417.177l.476.117c.286.07.5.176.64.319a.746.746 0 01.211.549.81.81 0 01-.159.492c-.104.145-.25.259-.438.342a1.588 1.588 0 01-.655.125c-.326 0-.597-.07-.811-.212a.944.944 0 01-.407-.622l.467-.117a.649.649 0 00.253.388c.125.086.288.13.49.13.23 0 .412-.049.547-.146.136-.099.204-.217.204-.355a.375.375 0 00-.117-.28.752.752 0 00-.359-.171l-.534-.125c-.293-.069-.509-.177-.646-.323a.782.782 0 01-.205-.553.79.79 0 01.153-.48 1.03 1.03 0 01.419-.327c.178-.079.38-.119.605-.119.317 0 .566.069.747.209.182.139.311.322.388.55zm2.101 2.553c-.301 0-.559-.07-.776-.212a1.394 1.394 0 01-.501-.586 1.987 1.987 0 01-.175-.854c0-.325.06-.612.179-.861.121-.25.29-.446.505-.586.217-.142.47-.213.759-.213.226 0 .429.042.609.125.181.084.329.2.445.351.115.15.187.325.215.525h-.493a.763.763 0 00-.25-.388c-.128-.114-.3-.171-.517-.171-.192 0-.36.05-.505.15a.985.985 0 00-.336.42c-.079.179-.119.39-.119.632 0 .247.039.463.117.646.079.184.19.326.334.428a.865.865 0 00.509.152.867.867 0 00.348-.067.716.716 0 00.419-.492h.493a1.14 1.14 0 01-.639.87 1.385 1.385 0 01-.621.131zm1.979-.066v-3.204h.476v.484h.033a.767.767 0 01.317-.386.933.933 0 01.518-.148 3.471 3.471 0 01.258.008v.501a1 1 0 00-.114-.019 1.112 1.112 0 00-.186-.015.873.873 0 00-.417.098.716.716 0 00-.392.653v2.028h-.493zm2.186 0v-3.204h.492v3.204h-.492zm.25-3.738a.352.352 0 01-.248-.098.317.317 0 01-.102-.236c0-.092.034-.17.102-.236a.352.352 0 01.248-.098c.096 0 .178.033.246.098.07.066.105.144.105.236s-.035.17-.105.236a.344.344 0 01-.246.098zm1.211 3.738v-4.272h.492v1.577h.042c.036-.056.086-.127.15-.213a.868.868 0 01.279-.234c.123-.069.288-.104.497-.104.27 0 .507.067.713.202.206.135.367.326.482.574.115.247.173.539.173.876 0 .339-.058.633-.173.882-.115.248-.275.44-.48.576-.204.135-.44.202-.707.202-.206 0-.37-.034-.494-.102a.917.917 0 01-.286-.235 2.868 2.868 0 01-.154-.222h-.059v.493h-.475zm.484-1.602c0 .242.035.455.106.64a.96.96 0 00.311.432.805.805 0 00.5.154.812.812 0 00.516-.162c.139-.11.243-.258.313-.443.07-.186.106-.393.106-.621a1.69 1.69 0 00-.104-.609.94.94 0 00-.311-.432.823.823 0 00-.52-.161c-.2 0-.368.051-.504.152a.911.911 0 00-.309.422c-.07.179-.104.388-.104.628zm4.441 1.668a1.51 1.51 0 01-.799-.204 1.374 1.374 0 01-.516-.576 1.968 1.968 0 01-.179-.863 2 2 0 01.179-.868c.121-.252.29-.448.505-.588.217-.142.47-.213.76-.213.166 0 .331.028.494.083.163.056.311.146.444.272.134.123.24.287.319.492.08.204.119.456.119.755v.209h-2.47v-.426h1.97c0-.181-.037-.342-.109-.484a.817.817 0 00-.767-.459.884.884 0 00-.509.146.962.962 0 00-.328.376 1.105 1.105 0 00-.115.496v.284c0 .242.042.447.125.615a.908.908 0 00.353.382c.15.086.325.129.524.129.129 0 .246-.018.35-.054a.745.745 0 00.273-.167.756.756 0 00.178-.279l.475.133c-.05.161-.134.303-.252.426a1.223 1.223 0 01-.438.283c-.174.067-.369.1-.586.1zm3.285 0c-.267 0-.503-.067-.707-.202a1.363 1.363 0 01-.48-.576 2.087 2.087 0 01-.173-.882c0-.337.058-.629.173-.876.116-.248.276-.439.482-.574.206-.135.444-.202.713-.202.209 0 .374.035.495.104a.847.847 0 01.279.234c.066.086.116.157.153.213h.041v-1.577h.493v4.272h-.476v-.493h-.058a3.249 3.249 0 01-.155.222.917.917 0 01-.286.235 1.023 1.023 0 01-.494.102zm.067-.442a.805.805 0 00.5-.154.96.96 0 00.311-.432c.071-.185.107-.398.107-.64 0-.24-.035-.449-.105-.628a.916.916 0 00-.308-.422.827.827 0 00-.505-.152.83.83 0 00-.522.161.963.963 0 00-.311.432c-.068.18-.102.383-.102.609 0 .228.035.435.105.621.07.185.175.333.312.443.14.108.312.162.518.162zM41.59 273.315v-3.204h.492v3.204h-.492zm.25-3.738a.351.351 0 01-.248-.098.316.316 0 01-.102-.236c0-.092.034-.17.102-.236a.351.351 0 01.248-.098c.096 0 .178.033.247.098.07.066.104.144.104.236s-.035.17-.104.236a.344.344 0 01-.247.098zm1.636 1.81v1.928h-.492v-3.204h.476v.5h.041a.92.92 0 01.343-.392c.153-.1.35-.15.592-.15.217 0 .407.044.57.133a.912.912 0 01.38.401c.09.178.135.403.135.676v2.036h-.493v-2.003c0-.252-.065-.448-.196-.588-.13-.142-.31-.213-.538-.213a.86.86 0 00-.421.102.73.73 0 00-.29.299.98.98 0 00-.106.475zm5.898 1.994a1.39 1.39 0 01-.761-.206 1.402 1.402 0 01-.51-.578 1.954 1.954 0 01-.18-.868c0-.333.06-.625.18-.874.123-.249.293-.442.51-.58.218-.137.472-.206.761-.206.29 0 .542.069.76.206.218.138.387.331.508.58.123.249.184.541.184.874 0 .331-.061.621-.184.868-.12.248-.29.44-.509.578-.217.138-.47.206-.759.206zm0-.442c.22 0 .4-.056.542-.169a.989.989 0 00.315-.444c.069-.184.103-.382.103-.597 0-.214-.035-.413-.103-.598a1.01 1.01 0 00-.315-.449.838.838 0 00-.542-.171c-.22 0-.4.057-.542.171a1.011 1.011 0 00-.315.449 1.716 1.716 0 00-.103.598c0 .215.035.413.103.597a.99.99 0 00.315.444.843.843 0 00.542.169zm4.223-.934v-1.894h.492v3.204h-.492v-.543h-.034a1.049 1.049 0 01-.35.415 1.01 1.01 0 01-.601.169c-.2 0-.378-.043-.534-.131a.921.921 0 01-.367-.401c-.09-.179-.134-.405-.134-.677v-2.036h.493v2.002c0 .234.065.42.196.559.132.139.3.209.505.209a.833.833 0 00.373-.094.82.82 0 00.321-.288.862.862 0 00.132-.494zm1.394 1.31v-3.204h.475v.484h.034a.764.764 0 01.317-.386.931.931 0 01.517-.148 3.5 3.5 0 01.259.008v.501a1.02 1.02 0 00-.115-.019 1.1 1.1 0 00-.186-.015.876.876 0 00-.417.098.72.72 0 00-.392.653v2.028h-.492zm3.837 1.201v-4.405h.476v.509h.058a4.65 4.65 0 01.15-.213.873.873 0 01.28-.234c.122-.069.288-.104.496-.104.27 0 .508.067.714.202.206.135.366.326.482.574.115.247.173.539.173.876 0 .339-.058.633-.173.882a1.37 1.37 0 01-.48.576c-.204.135-.44.202-.707.202-.206 0-.37-.034-.495-.102a.916.916 0 01-.285-.235 3.004 3.004 0 01-.155-.222h-.041v1.694h-.493zm.484-2.803c0 .242.036.455.107.64.07.184.174.328.31.432a.806.806 0 00.501.154.81.81 0 00.515-.162.999.999 0 00.313-.443 1.73 1.73 0 00.107-.621 1.68 1.68 0 00-.105-.609.934.934 0 00-.31-.432.821.821 0 00-.52-.161c-.2 0-.368.051-.505.152a.919.919 0 00-.309.422 1.74 1.74 0 00-.104.628zm3.096 1.602v-3.204h.475v.484h.034a.765.765 0 01.317-.386.93.93 0 01.517-.148 3.505 3.505 0 01.259.008v.501a1.02 1.02 0 00-.115-.019 1.1 1.1 0 00-.186-.015.875.875 0 00-.417.098.72.72 0 00-.392.653v2.028h-.492zm2.185 0v-3.204h.493v3.204h-.493zm.25-3.738a.351.351 0 01-.248-.098.316.316 0 01-.102-.236c0-.092.034-.17.103-.236a.351.351 0 01.248-.098c.096 0 .178.033.246.098.07.066.104.144.104.236s-.035.17-.104.236a.344.344 0 01-.246.098zm3.764.534l-1.184 3.204h-.501l-1.185-3.204h.534l.885 2.553h.033l.884-2.553h.534zm1.496 3.279a1.29 1.29 0 01-.553-.115.95.95 0 01-.395-.336.946.946 0 01-.146-.534c0-.183.037-.332.109-.446a.758.758 0 01.29-.271c.12-.066.254-.114.4-.146.148-.034.296-.06.445-.08.194-.025.352-.043.473-.056a.73.73 0 00.267-.069c.057-.032.086-.087.086-.167v-.016c0-.206-.057-.366-.17-.48-.11-.114-.28-.171-.506-.171-.235 0-.42.051-.553.154a.912.912 0 00-.281.33l-.468-.167a1.13 1.13 0 01.334-.455c.14-.11.293-.186.459-.229a1.88 1.88 0 01.492-.067c.103 0 .221.012.355.037.135.024.265.073.39.149a.867.867 0 01.315.34c.083.151.125.354.125.609v2.111h-.492v-.434h-.025a.87.87 0 01-.167.223.957.957 0 01-.311.202 1.19 1.19 0 01-.473.084zm.075-.442a.982.982 0 00.492-.115.784.784 0 00.409-.678v-.451c-.021.025-.067.048-.138.069-.07.02-.15.037-.242.052-.09.014-.179.027-.265.038l-.206.025a1.95 1.95 0 00-.36.081.615.615 0 00-.266.165.42.42 0 00-.1.296.44.44 0 00.19.388c.128.086.29.13.486.13zm3.593.433c-.3 0-.559-.07-.776-.212a1.393 1.393 0 01-.5-.586 1.99 1.99 0 01-.176-.854c0-.325.06-.612.18-.861.12-.25.289-.446.505-.586.216-.142.47-.213.759-.213.225 0 .428.042.609.125.18.084.329.2.444.351.116.15.187.325.215.525h-.492a.765.765 0 00-.25-.388c-.128-.114-.3-.171-.518-.171-.192 0-.36.05-.505.15a.98.98 0 00-.336.42c-.079.179-.118.39-.118.632 0 .247.039.463.117.646a.99.99 0 00.333.428.867.867 0 00.51.152.87.87 0 00.347-.067.716.716 0 00.42-.492h.492a1.138 1.138 0 01-.638.87 1.386 1.386 0 01-.622.131zm2.297 1.135a1.07 1.07 0 01-.359-.058l.125-.434a.92.92 0 00.317.033.377.377 0 00.244-.123.981.981 0 00.199-.352l.091-.251-1.184-3.22h.533l.885 2.553h.033l.885-2.553h.534l-1.36 3.671a1.404 1.404 0 01-.228.411.852.852 0 01-.315.244.969.969 0 01-.4.079zm4.605 0v-4.405h.475v.509h.059c.036-.056.086-.127.15-.213a.873.873 0 01.28-.234c.122-.069.287-.104.496-.104.27 0 .507.067.713.202.206.135.367.326.482.574.115.247.173.539.173.876 0 .339-.058.633-.173.882-.115.248-.275.44-.48.576-.204.135-.44.202-.707.202-.206 0-.37-.034-.494-.102a.916.916 0 01-.286-.235 3.004 3.004 0 01-.154-.222h-.042v1.694h-.492zm.484-2.803c0 .242.035.455.106.64.07.184.174.328.31.432a.806.806 0 00.501.154.81.81 0 00.516-.162.999.999 0 00.313-.443c.07-.186.106-.393.106-.621a1.68 1.68 0 00-.104-.609.935.935 0 00-.311-.432.822.822 0 00-.52-.161c-.2 0-.368.051-.504.152a.92.92 0 00-.31.422 1.74 1.74 0 00-.103.628zm4.397 1.668a1.39 1.39 0 01-.761-.206 1.402 1.402 0 01-.51-.578 1.954 1.954 0 01-.181-.868c0-.333.06-.625.181-.874.123-.249.293-.442.51-.58a1.4 1.4 0 01.76-.206c.29 0 .543.069.76.206.218.138.388.331.51.58.122.249.183.541.183.874 0 .331-.061.621-.184.868-.12.248-.29.44-.509.578-.217.138-.47.206-.76.206zm0-.442c.22 0 .4-.056.542-.169a.989.989 0 00.315-.444c.068-.184.102-.382.102-.597 0-.214-.034-.413-.102-.598a1.01 1.01 0 00-.315-.449.838.838 0 00-.542-.171c-.22 0-.4.057-.543.171a1.011 1.011 0 00-.314.449 1.716 1.716 0 00-.103.598c0 .215.034.413.103.597a.99.99 0 00.314.444.843.843 0 00.543.169zm2.695-3.896v4.272h-.492v-4.272h.492zm.902 4.272v-3.204h.492v3.204h-.492zm.25-3.738a.352.352 0 01-.248-.098.316.316 0 01-.102-.236c0-.092.034-.17.102-.236a.352.352 0 01.248-.098c.096 0 .178.033.247.098.07.066.104.144.104.236s-.035.17-.104.236a.344.344 0 01-.246.098zm2.446 3.804c-.3 0-.56-.07-.776-.212a1.392 1.392 0 01-.5-.586 1.99 1.99 0 01-.176-.854c0-.325.06-.612.18-.861.12-.25.289-.446.504-.586.217-.142.47-.213.76-.213.225 0 .428.042.609.125.18.084.328.2.444.351.115.15.187.325.215.525h-.493a.765.765 0 00-.25-.388c-.128-.114-.3-.171-.517-.171-.192 0-.36.05-.505.15a.981.981 0 00-.336.42 1.54 1.54 0 00-.119.632c0 .247.04.463.117.646.08.184.19.326.334.428a.867.867 0 00.509.152.87.87 0 00.348-.067.715.715 0 00.42-.492h.492a1.139 1.139 0 01-.639.87 1.386 1.386 0 01-.621.131zm2.296 1.135a1.072 1.072 0 01-.358-.058l.125-.434a.92.92 0 00.317.033.377.377 0 00.244-.123.981.981 0 00.198-.352l.092-.251-1.185-3.22h.534l.885 2.553h.033l.884-2.553h.534l-1.36 3.671a1.402 1.402 0 01-.227.411.852.852 0 01-.315.244.969.969 0 01-.4.079zm3.111-1.168a.364.364 0 01-.265-.11.362.362 0 01-.11-.265.36.36 0 01.11-.265.36.36 0 01.265-.111.36.36 0 01.265.111.36.36 0 01.11.265.393.393 0 01-.188.325.362.362 0 01-.187.05z" fill="#ACACAC"/></svg>